<svg width="700" height="700" viewBox="0 0 700 700" fill="none" xmlns="http://www.w3.org/2000/svg">
<g clip-path="url(#clip0_1_3)">
<rect width="700" height="700" fill="#1A6C44"/>
<path d="M681 351C681 533.806 532.806 682 350 682C167.194 682 19 533.806 19 351C19 168.194 167.194 20 350 20C532.806 20 681 168.194 681 351Z" fill="#40742C"/>
<path d="M338.452 314.026C344.396 307.556 354.603 307.556 360.546 314.026L493.112 458.353C496.438 461.974 497.544 466.434 496.933 470.588C496.976 471.053 496.999 471.524 496.999 472V618C496.999 626.284 490.284 633 481.999 633H389V562.5C389 540.685 371.315 523 349.5 523C327.685 523 310 540.685 310 562.5V633H216.999C208.715 633 201.999 626.284 201.999 618V472C201.999 471.525 202.023 471.056 202.066 470.593C201.453 466.438 202.559 461.976 205.887 458.353L338.452 314.026Z" fill="#D9D9D9"/>
<path d="M338.599 253.853C344.542 247.382 354.75 247.382 360.693 253.853L537.309 446.137C546.142 455.755 539.32 471.285 526.262 471.285H524.409L360.693 293.044C354.75 286.574 344.542 286.574 338.599 293.044L174.882 471.285H173.029C159.971 471.284 153.149 455.755 161.982 446.137L338.599 253.853Z" fill="#DB411E"/>
<path d="M241 339.101L193.21 391H193V315H241V339.101Z" fill="#DB411E"/>
<path d="M571.791 281.187C576.524 276.195 584.476 276.195 589.209 281.187L666.521 362.745C669.12 365.486 670.089 368.866 669.779 372.073C670.052 373.204 670.198 374.386 670.198 375.601V434.184C667.196 445.636 663.595 456.846 659.432 467.778C658.089 468.172 656.669 468.385 655.198 468.385H604.058V425.21C604.057 411.851 593.227 401.02 579.867 401.02C566.508 401.02 555.678 411.851 555.678 425.21V438.695L491.477 368.216C491.478 368.214 491.48 368.211 491.481 368.208C491.942 366.274 492.916 364.394 494.479 362.745L571.791 281.187Z" fill="#D9D9D9"/>
<path d="M568.91 240.853C574.854 234.383 585.061 234.382 591.004 240.853L680.807 338.623C680.934 342.4 681 346.192 681 350C681 354.211 680.921 358.404 680.765 362.577L591.004 264.854C585.061 258.384 574.854 258.384 568.91 264.854L482.759 358.646L472.015 346.852C472.555 345.933 473.209 345.045 473.982 344.202L568.91 240.853ZM513.421 288.398L484.154 320.182H484.025V273.639H513.421V288.398Z" fill="#DB411E"/>
<path d="M234.841 134.182H225.227C225.159 133.386 224.977 132.665 224.682 132.017C224.398 131.369 224 130.812 223.489 130.347C222.989 129.869 222.381 129.506 221.665 129.256C220.949 128.994 220.136 128.864 219.227 128.864C217.636 128.864 216.29 129.25 215.188 130.023C214.097 130.795 213.267 131.903 212.699 133.347C212.142 134.79 211.864 136.523 211.864 138.545C211.864 140.682 212.148 142.472 212.716 143.915C213.295 145.347 214.131 146.426 215.222 147.153C216.313 147.869 217.625 148.227 219.159 148.227C220.034 148.227 220.818 148.119 221.511 147.903C222.205 147.676 222.807 147.352 223.318 146.932C223.83 146.511 224.244 146.006 224.562 145.415C224.892 144.812 225.114 144.136 225.227 143.386L234.841 143.455C234.727 144.932 234.313 146.437 233.597 147.972C232.881 149.494 231.864 150.903 230.545 152.199C229.239 153.483 227.619 154.517 225.688 155.301C223.756 156.085 221.511 156.477 218.955 156.477C215.75 156.477 212.875 155.79 210.33 154.415C207.795 153.04 205.79 151.017 204.312 148.347C202.847 145.676 202.114 142.409 202.114 138.545C202.114 134.659 202.864 131.386 204.364 128.727C205.864 126.057 207.886 124.04 210.432 122.676C212.977 121.301 215.818 120.614 218.955 120.614C221.159 120.614 223.188 120.915 225.04 121.517C226.892 122.119 228.517 123 229.915 124.159C231.313 125.307 232.438 126.722 233.29 128.403C234.142 130.085 234.659 132.011 234.841 134.182ZM272.959 138.545C272.959 142.432 272.203 145.71 270.692 148.381C269.18 151.04 267.141 153.057 264.572 154.432C262.004 155.795 259.141 156.477 255.982 156.477C252.8 156.477 249.925 155.79 247.357 154.415C244.8 153.028 242.766 151.006 241.254 148.347C239.754 145.676 239.004 142.409 239.004 138.545C239.004 134.659 239.754 131.386 241.254 128.727C242.766 126.057 244.8 124.04 247.357 122.676C249.925 121.301 252.8 120.614 255.982 120.614C259.141 120.614 262.004 121.301 264.572 122.676C267.141 124.04 269.18 126.057 270.692 128.727C272.203 131.386 272.959 134.659 272.959 138.545ZM263.209 138.545C263.209 136.455 262.93 134.693 262.374 133.261C261.828 131.818 261.016 130.727 259.936 129.989C258.868 129.239 257.55 128.864 255.982 128.864C254.413 128.864 253.089 129.239 252.01 129.989C250.942 130.727 250.129 131.818 249.572 133.261C249.027 134.693 248.754 136.455 248.754 138.545C248.754 140.636 249.027 142.403 249.572 143.847C250.129 145.278 250.942 146.369 252.01 147.119C253.089 147.858 254.413 148.227 255.982 148.227C257.55 148.227 258.868 147.858 259.936 147.119C261.016 146.369 261.828 145.278 262.374 143.847C262.93 142.403 263.209 140.636 263.209 138.545ZM284.686 121.091L291.845 145.705H292.118L299.277 121.091H309.982L298.459 156H285.504L273.982 121.091H284.686ZM322.821 121.091V156H313.344V121.091H322.821ZM327.312 156V121.091H342.449C345.108 121.091 347.341 121.449 349.148 122.165C350.966 122.881 352.335 123.892 353.256 125.199C354.188 126.506 354.653 128.045 354.653 129.818C354.653 131.102 354.369 132.273 353.801 133.33C353.244 134.386 352.46 135.273 351.449 135.989C350.438 136.693 349.256 137.182 347.903 137.455V137.795C349.403 137.852 350.767 138.233 351.994 138.938C353.222 139.631 354.199 140.591 354.926 141.818C355.653 143.034 356.017 144.466 356.017 146.114C356.017 148.023 355.517 149.722 354.517 151.21C353.528 152.699 352.119 153.869 350.29 154.722C348.46 155.574 346.278 156 343.744 156H327.312ZM336.79 148.432H341.222C342.813 148.432 344.006 148.136 344.801 147.545C345.597 146.943 345.994 146.057 345.994 144.886C345.994 144.068 345.807 143.375 345.432 142.807C345.057 142.239 344.523 141.807 343.83 141.511C343.148 141.216 342.324 141.068 341.358 141.068H336.79V148.432ZM336.79 135.205H340.676C341.506 135.205 342.239 135.074 342.875 134.812C343.511 134.551 344.006 134.176 344.358 133.688C344.722 133.188 344.903 132.58 344.903 131.864C344.903 130.784 344.517 129.96 343.744 129.392C342.972 128.812 341.994 128.523 340.812 128.523H336.79V135.205ZM380.034 121.091H389.511V143.455C389.511 146.114 388.875 148.415 387.602 150.358C386.341 152.29 384.58 153.784 382.318 154.841C380.057 155.886 377.432 156.409 374.443 156.409C371.432 156.409 368.795 155.886 366.534 154.841C364.273 153.784 362.511 152.29 361.25 150.358C360 148.415 359.375 146.114 359.375 143.455V121.091H368.852V142.636C368.852 143.716 369.091 144.682 369.568 145.534C370.045 146.375 370.705 147.034 371.545 147.511C372.398 147.989 373.364 148.227 374.443 148.227C375.534 148.227 376.5 147.989 377.341 147.511C378.182 147.034 378.841 146.375 379.318 145.534C379.795 144.682 380.034 143.716 380.034 142.636V121.091ZM426.607 134.182H416.993C416.925 133.386 416.743 132.665 416.447 132.017C416.163 131.369 415.766 130.812 415.254 130.347C414.754 129.869 414.146 129.506 413.43 129.256C412.714 128.994 411.902 128.864 410.993 128.864C409.402 128.864 408.055 129.25 406.953 130.023C405.862 130.795 405.033 131.903 404.464 133.347C403.908 134.79 403.629 136.523 403.629 138.545C403.629 140.682 403.913 142.472 404.482 143.915C405.061 145.347 405.896 146.426 406.987 147.153C408.078 147.869 409.391 148.227 410.925 148.227C411.8 148.227 412.584 148.119 413.277 147.903C413.97 147.676 414.572 147.352 415.084 146.932C415.595 146.511 416.01 146.006 416.328 145.415C416.658 144.812 416.879 144.136 416.993 143.386L426.607 143.455C426.493 144.932 426.078 146.437 425.362 147.972C424.646 149.494 423.629 150.903 422.311 152.199C421.004 153.483 419.385 154.517 417.453 155.301C415.521 156.085 413.277 156.477 410.72 156.477C407.516 156.477 404.641 155.79 402.095 154.415C399.561 153.04 397.555 151.017 396.078 148.347C394.612 145.676 393.879 142.409 393.879 138.545C393.879 134.659 394.629 131.386 396.129 128.727C397.629 126.057 399.652 124.04 402.197 122.676C404.743 121.301 407.584 120.614 410.72 120.614C412.925 120.614 414.953 120.915 416.805 121.517C418.658 122.119 420.283 123 421.68 124.159C423.078 125.307 424.203 126.722 425.055 128.403C425.908 130.085 426.425 132.011 426.607 134.182ZM430.906 156V121.091H456.065V128.727H440.384V134.727H454.77V142.364H440.384V148.364H455.997V156H430.906ZM494.584 138.545C494.584 142.432 493.828 145.71 492.317 148.381C490.805 151.04 488.766 153.057 486.197 154.432C483.629 155.795 480.766 156.477 477.607 156.477C474.425 156.477 471.55 155.79 468.982 154.415C466.425 153.028 464.391 151.006 462.879 148.347C461.379 145.676 460.629 142.409 460.629 138.545C460.629 134.659 461.379 131.386 462.879 128.727C464.391 126.057 466.425 124.04 468.982 122.676C471.55 121.301 474.425 120.614 477.607 120.614C480.766 120.614 483.629 121.301 486.197 122.676C488.766 124.04 490.805 126.057 492.317 128.727C493.828 131.386 494.584 134.659 494.584 138.545ZM484.834 138.545C484.834 136.455 484.555 134.693 483.999 133.261C483.453 131.818 482.641 130.727 481.561 129.989C480.493 129.239 479.175 128.864 477.607 128.864C476.038 128.864 474.714 129.239 473.635 129.989C472.567 130.727 471.754 131.818 471.197 133.261C470.652 134.693 470.379 136.455 470.379 138.545C470.379 140.636 470.652 142.403 471.197 143.847C471.754 145.278 472.567 146.369 473.635 147.119C474.714 147.858 476.038 148.227 477.607 148.227C479.175 148.227 480.493 147.858 481.561 147.119C482.641 146.369 483.453 145.278 483.999 143.847C484.555 142.403 484.834 140.636 484.834 138.545Z" fill="#D9D9D9"/>
<circle cx="541" cy="210" r="26" fill="#FFE048"/>
<path d="M91.3086 282.132C96.0381 277.163 103.963 277.163 108.692 282.132L174 350.742V405.487L124.012 460.443V425.152C124.012 411.797 113.184 400.969 99.8281 400.969C86.4724 400.969 75.6455 411.797 75.6455 425.152V468.315H35.4238C23.0336 435.387 15.6638 400.001 14.25 363.088L91.3086 282.132Z" fill="#D9D9D9"/>
<path d="M-0.000244141 361.602L-4.20044 366.175C-10.6092 361.141 -12.3994 351.109 -6.01782 344.161L-0.000244141 337.609V361.602ZM88.8708 240.853C94.8143 234.383 105.022 234.382 110.966 240.853L174 309.479V333.474L110.966 264.847C105.022 258.377 94.8143 258.377 88.8708 264.847L14.0212 346.336C14.1122 337.819 14.5195 329.377 15.2332 321.023L88.8708 240.853ZM33.4021 288.38L16.8035 306.406C18.2423 295.3 20.2235 284.364 22.7195 273.626H33.4021V288.38Z" fill="#DB411E"/>
<path d="M107.135 160.48L106.041 161.875C105.714 161.68 105.385 161.56 105.053 161.517C104.722 161.474 104.398 161.492 104.081 161.572C103.763 161.651 103.463 161.789 103.181 161.984C102.9 162.176 102.646 162.418 102.417 162.71C102.003 163.238 101.76 163.821 101.687 164.46C101.616 165.096 101.731 165.749 102.033 166.419C102.336 167.086 102.842 167.729 103.55 168.347C104.263 168.97 104.959 169.376 105.636 169.566C106.316 169.753 106.945 169.747 107.524 169.549C108.102 169.351 108.595 168.991 109.004 168.47C109.231 168.18 109.409 167.874 109.538 167.55C109.667 167.22 109.74 166.885 109.757 166.543C109.775 166.202 109.734 165.865 109.634 165.532C109.534 165.194 109.367 164.874 109.131 164.573L110.229 163.182C110.602 163.633 110.885 164.123 111.079 164.654C111.273 165.18 111.37 165.724 111.371 166.288C111.371 166.845 111.275 167.399 111.084 167.95C110.892 168.501 110.599 169.029 110.204 169.532C109.583 170.325 108.849 170.875 108.004 171.181C107.155 171.485 106.254 171.522 105.3 171.291C104.349 171.058 103.407 170.534 102.474 169.72C101.538 168.902 100.875 168.022 100.485 167.079C100.092 166.133 99.9585 165.193 100.085 164.259C100.209 163.323 100.58 162.46 101.199 161.67C101.58 161.184 102.002 160.789 102.466 160.486C102.929 160.177 103.421 159.966 103.942 159.854C104.46 159.739 104.989 159.731 105.53 159.832C106.069 159.93 106.603 160.146 107.135 160.48Z" fill="#D9D9D9"/>
<path d="M119.421 158.695C118.887 159.315 118.285 159.725 117.616 159.927C116.948 160.129 116.26 160.124 115.554 159.912C114.847 159.701 114.169 159.282 113.519 158.658C112.866 158.031 112.406 157.354 112.137 156.629C111.868 155.904 111.798 155.181 111.926 154.459C112.053 153.738 112.385 153.067 112.919 152.448C113.453 151.828 114.055 151.417 114.724 151.215C115.392 151.013 116.081 151.02 116.79 151.234C117.499 151.448 118.18 151.869 118.833 152.497C119.483 153.121 119.941 153.795 120.207 154.517C120.473 155.24 120.542 155.962 120.415 156.683C120.287 157.405 119.955 158.075 119.421 158.695ZM118.396 157.703C118.743 157.301 118.929 156.871 118.954 156.413C118.98 155.955 118.879 155.501 118.652 155.052C118.427 154.601 118.113 154.18 117.708 153.792C117.307 153.406 116.882 153.116 116.435 152.923C115.988 152.724 115.548 152.657 115.115 152.724C114.683 152.792 114.293 153.026 113.947 153.427C113.598 153.832 113.411 154.266 113.386 154.729C113.363 155.19 113.465 155.648 113.693 156.102C113.92 156.551 114.234 156.969 114.636 157.354C115.04 157.743 115.465 158.035 115.909 158.232C116.357 158.426 116.795 158.488 117.225 158.418C117.657 158.346 118.048 158.107 118.396 157.703Z" fill="#D9D9D9"/>
<path d="M128.609 148.722C128.05 149.319 127.432 149.705 126.756 149.879C126.079 150.053 125.393 150.02 124.696 149.779C123.999 149.538 123.338 149.092 122.715 148.441C122.089 147.787 121.656 147.092 121.418 146.357C121.179 145.621 121.139 144.895 121.296 144.18C121.454 143.464 121.812 142.807 122.372 142.21C122.931 141.613 123.549 141.228 124.226 141.054C124.902 140.879 125.59 140.914 126.29 141.158C126.989 141.401 127.652 141.85 128.278 142.504C128.902 143.155 129.332 143.847 129.568 144.58C129.803 145.313 129.843 146.037 129.685 146.753C129.527 147.469 129.169 148.125 128.609 148.722ZM127.627 147.688C127.989 147.301 128.193 146.879 128.237 146.422C128.282 145.966 128.2 145.508 127.991 145.05C127.786 144.589 127.489 144.157 127.101 143.752C126.716 143.35 126.304 143.043 125.865 142.831C125.426 142.613 124.989 142.529 124.554 142.578C124.12 142.627 123.721 142.845 123.358 143.232C122.993 143.622 122.788 144.048 122.744 144.51C122.702 144.969 122.786 145.431 122.994 145.894C123.202 146.352 123.499 146.783 123.884 147.185C124.272 147.589 124.684 147.899 125.12 148.114C125.559 148.326 125.995 148.406 126.427 148.354C126.862 148.3 127.262 148.078 127.627 147.688Z" fill="#D9D9D9"/>
<path d="M137.607 144.057L129.671 135.056L130.854 133.894L131.79 134.955L131.892 134.855C131.842 134.65 131.804 134.393 131.778 134.084C131.753 133.774 131.799 133.438 131.916 133.073C132.031 132.706 132.282 132.332 132.668 131.953C133.171 131.459 133.737 131.152 134.367 131.032C134.997 130.911 135.646 130.992 136.314 131.275C136.984 131.555 137.631 132.048 138.255 132.756C138.879 133.463 139.302 134.18 139.523 134.906C139.742 135.629 139.776 136.32 139.625 136.977C139.471 137.632 139.143 138.206 138.64 138.7C138.262 139.072 137.894 139.309 137.535 139.411C137.18 139.512 136.856 139.538 136.563 139.492C136.27 139.446 136.025 139.389 135.83 139.321L135.757 139.393L138.819 142.866L137.607 144.057ZM133.745 137.163C134.15 137.623 134.57 137.964 135.002 138.186C135.435 138.408 135.858 138.498 136.271 138.458C136.682 138.415 137.062 138.222 137.41 137.88C137.773 137.524 137.986 137.126 138.052 136.686C138.114 136.242 138.054 135.785 137.87 135.313C137.689 134.839 137.405 134.383 137.02 133.945C136.639 133.514 136.235 133.187 135.807 132.965C135.383 132.741 134.96 132.65 134.538 132.693C134.12 132.733 133.728 132.932 133.363 133.29C133.012 133.635 132.799 134.022 132.723 134.452C132.651 134.878 132.702 135.323 132.879 135.786C133.055 136.249 133.344 136.708 133.745 137.163Z" fill="#D9D9D9"/>
<path d="M148.328 129.838C147.69 130.414 147.025 130.768 146.332 130.898C145.64 131.024 144.958 130.939 144.286 130.644C143.614 130.343 142.993 129.841 142.423 129.138C141.86 128.443 141.488 127.72 141.306 126.966C141.127 126.211 141.141 125.483 141.347 124.782C141.556 124.078 141.961 123.455 142.563 122.912C142.929 122.582 143.334 122.326 143.78 122.143C144.225 121.959 144.694 121.88 145.186 121.905C145.678 121.929 146.179 122.087 146.687 122.377C147.192 122.665 147.694 123.116 148.193 123.731L148.572 124.199L143.422 128.848L142.621 127.859L146.535 124.326C146.253 123.979 145.937 123.732 145.585 123.586C145.23 123.437 144.868 123.395 144.497 123.46C144.128 123.522 143.781 123.7 143.455 123.995C143.101 124.315 142.865 124.685 142.749 125.106C142.633 125.522 142.621 125.94 142.714 126.361C142.807 126.776 142.991 127.153 143.265 127.491L143.891 128.264C144.258 128.717 144.646 129.034 145.056 129.215C145.468 129.393 145.88 129.442 146.291 129.361C146.7 129.277 147.089 129.069 147.458 128.736C147.697 128.52 147.886 128.288 148.025 128.04C148.163 127.789 148.245 127.526 148.271 127.253C148.298 126.979 148.263 126.702 148.167 126.422L149.543 125.569C149.746 126.024 149.835 126.501 149.812 127.001C149.789 127.495 149.654 127.986 149.407 128.475C149.16 128.957 148.801 129.412 148.328 129.838Z" fill="#D9D9D9"/>
<path d="M155.466 123.546L150.249 116.549L151.512 115.5L152.341 116.612L152.411 116.554C152.253 116.075 152.247 115.6 152.396 115.128C152.544 114.65 152.815 114.248 153.209 113.921C153.29 113.854 153.389 113.777 153.504 113.691C153.622 113.603 153.717 113.536 153.788 113.492L154.759 114.795C154.695 114.823 154.589 114.884 154.442 114.977C154.292 115.067 154.15 115.168 154.016 115.279C153.707 115.536 153.483 115.833 153.343 116.17C153.203 116.503 153.153 116.847 153.192 117.203C153.229 117.556 153.361 117.884 153.587 118.188L156.773 122.46L155.466 123.546Z" fill="#D9D9D9"/>
<path d="M165.485 115.802C165.048 116.142 164.595 116.365 164.125 116.472C163.653 116.576 163.201 116.547 162.769 116.384C162.34 116.22 161.962 115.903 161.634 115.434C161.352 115.03 161.195 114.64 161.162 114.263C161.129 113.886 161.187 113.522 161.334 113.172C161.482 112.822 161.686 112.486 161.945 112.164C162.205 111.842 162.483 111.534 162.781 111.24C163.159 110.87 163.465 110.569 163.7 110.337C163.934 110.103 164.082 109.903 164.147 109.738C164.211 109.573 164.185 109.406 164.068 109.239L164.045 109.206C163.761 108.799 163.43 108.57 163.053 108.519C162.678 108.465 162.274 108.607 161.841 108.945C161.39 109.296 161.107 109.677 160.992 110.088C160.878 110.493 160.86 110.859 160.937 111.188L159.469 111.87C159.315 111.319 159.288 110.799 159.388 110.308C159.489 109.812 159.685 109.357 159.977 108.943C160.267 108.526 160.62 108.155 161.035 107.832C161.31 107.618 161.626 107.425 161.981 107.253C162.337 107.077 162.712 106.972 163.105 106.94C163.5 106.905 163.9 106.984 164.303 107.179C164.704 107.37 165.087 107.726 165.452 108.247L168.772 112.998L167.463 114.017L166.779 113.039L166.726 113.081C166.765 113.328 166.758 113.607 166.707 113.915C166.655 114.224 166.533 114.542 166.341 114.869C166.15 115.195 165.864 115.506 165.485 115.802ZM164.995 114.457C165.365 114.169 165.629 113.846 165.786 113.489C165.945 113.13 166.008 112.774 165.974 112.422C165.941 112.064 165.826 111.744 165.628 111.461L164.984 110.539C164.971 110.626 164.911 110.745 164.804 110.895C164.697 111.04 164.568 111.196 164.417 111.362C164.263 111.525 164.112 111.683 163.965 111.836C163.816 111.985 163.692 112.111 163.592 112.213C163.356 112.449 163.158 112.692 163 112.94C162.844 113.186 162.755 113.435 162.733 113.687C162.711 113.934 162.787 114.182 162.961 114.43C163.202 114.775 163.507 114.94 163.875 114.926C164.242 114.909 164.615 114.753 164.995 114.457Z" fill="#D9D9D9"/>
<path d="M172.354 99.7569L173.09 100.904L169.213 103.678L168.477 102.531L172.354 99.7569ZM168.386 100.027L169.768 99.0389L174.229 105.985C174.407 106.263 174.581 106.443 174.752 106.526C174.92 106.606 175.083 106.626 175.242 106.586C175.402 106.542 175.558 106.465 175.709 106.357C175.82 106.278 175.912 106.201 175.985 106.125C176.058 106.05 176.114 105.991 176.154 105.948L177.162 106.95C177.102 107.04 177.009 107.153 176.882 107.291C176.756 107.431 176.584 107.583 176.364 107.745C176.004 108.011 175.623 108.187 175.218 108.271C174.814 108.356 174.421 108.321 174.038 108.166C173.656 108.012 173.322 107.713 173.038 107.27L168.386 100.027Z" fill="#D9D9D9"/>
<path d="M181.964 103.807L177.472 96.3254L178.884 95.3808L183.377 102.863L181.964 103.807ZM177.492 94.6939C177.246 94.8582 176.984 94.9149 176.707 94.8639C176.43 94.8077 176.221 94.661 176.078 94.4239C175.934 94.1836 175.898 93.9211 175.97 93.6364C176.042 93.3464 176.202 93.1192 176.447 92.9549C176.693 92.7907 176.954 92.7367 177.23 92.793C177.508 92.8439 177.719 92.9895 177.863 93.2298C178.006 93.4669 178.041 93.7304 177.968 94.0205C177.896 94.3052 177.737 94.5297 177.492 94.6939Z" fill="#D9D9D9"/>
<path d="M190.759 87.8214L192.393 97.1025L190.857 98.0744L183.868 92.1797L185.41 91.2048L190.594 95.8636L190.67 95.815L189.218 88.7963L190.759 87.8214Z" fill="#D9D9D9"/>
<path d="M201.999 91.7074C201.52 91.9837 201.04 92.1428 200.558 92.1845C200.075 92.2229 199.63 92.1325 199.223 91.9133C198.818 91.6922 198.485 91.3278 198.222 90.8199C197.995 90.3826 197.891 89.9754 197.909 89.5982C197.926 89.221 198.032 88.8696 198.225 88.5439C198.419 88.2181 198.666 87.9139 198.967 87.631C199.268 87.3481 199.586 87.0817 199.921 86.8316C200.346 86.5166 200.691 86.2608 200.955 86.0644C201.218 85.8646 201.393 85.6874 201.479 85.5329C201.565 85.3783 201.561 85.2102 201.467 85.0286L201.449 84.9933C201.221 84.5527 200.923 84.2813 200.554 84.1792C200.189 84.0752 199.769 84.1605 199.293 84.435C198.798 84.7208 198.466 85.0588 198.297 85.4488C198.13 85.8336 198.063 86.1935 198.096 86.5284L196.545 87.0034C196.466 86.4378 196.508 85.9196 196.673 85.4486C196.84 84.9723 197.096 84.5494 197.442 84.1797C197.785 83.8066 198.185 83.4885 198.641 83.2254C198.943 83.0512 199.282 82.9037 199.658 82.7827C200.036 82.6564 200.422 82.604 200.817 82.6253C201.215 82.6448 201.601 82.7779 201.976 83.0246C202.349 83.268 202.682 83.6722 202.975 84.2373L205.64 89.3835L204.203 90.2126L203.655 89.1531L203.596 89.1872C203.601 89.4372 203.558 89.7112 203.465 90.0094C203.373 90.3075 203.209 90.605 202.975 90.9017C202.741 91.1984 202.415 91.4669 201.999 91.7074ZM201.692 90.3119C202.098 90.0772 202.403 89.7941 202.607 89.4627C202.813 89.1294 202.923 88.7864 202.937 88.4336C202.952 88.0756 202.88 87.7435 202.721 87.4374L202.204 86.4384C202.179 86.5225 202.104 86.6317 201.977 86.7659C201.852 86.8948 201.703 87.0309 201.53 87.1744C201.356 87.3144 201.185 87.45 201.019 87.581C200.85 87.7087 200.71 87.8159 200.597 87.9028C200.331 88.1045 200.102 88.3172 199.911 88.5409C199.724 88.7628 199.602 88.9968 199.546 89.243C199.492 89.484 199.535 89.739 199.674 90.0081C199.867 90.3814 200.148 90.5864 200.517 90.6228C200.883 90.656 201.275 90.5523 201.692 90.3119Z" fill="#D9D9D9"/>
<path d="M221.773 81.432C221.14 81.7411 220.503 81.8522 219.862 81.7653C219.222 81.6733 218.626 81.3892 218.075 80.9131C217.525 80.4319 217.061 79.7593 216.682 78.8955C216.303 78.0317 216.121 77.2238 216.134 76.4717C216.151 75.7181 216.336 75.0569 216.69 74.4881C217.044 73.9193 217.536 73.4812 218.166 73.1737C218.653 72.936 219.08 72.8282 219.45 72.8501C219.821 72.8669 220.136 72.9447 220.395 73.0834C220.657 73.2206 220.871 73.3499 221.036 73.4716L221.128 73.4267L219.392 69.4666L220.919 68.7212L225.59 79.3786L224.099 80.1066L223.554 78.8629L223.427 78.9252C223.409 79.1401 223.362 79.3992 223.284 79.7025C223.209 80.0042 223.058 80.3097 222.83 80.619C222.602 80.9283 222.25 81.1993 221.773 81.432ZM221.529 79.9405C221.968 79.7261 222.287 79.4269 222.487 79.0431C222.688 78.6541 222.774 78.2098 222.745 77.7101C222.72 77.2087 222.584 76.6771 222.337 76.115C222.094 75.56 221.803 75.1125 221.464 74.7727C221.125 74.4328 220.753 74.2206 220.348 74.1361C219.943 74.0516 219.518 74.1182 219.072 74.3359C218.612 74.5603 218.283 74.8687 218.083 75.2611C217.883 75.6536 217.797 76.0979 217.824 76.5941C217.855 77.0887 217.986 77.5997 218.217 78.127C218.451 78.6612 218.74 79.1035 219.084 79.4538C219.427 79.804 219.807 80.0292 220.223 80.1294C220.641 80.2245 221.076 80.1615 221.529 79.9405Z" fill="#D9D9D9"/>
<path d="M234.699 75.6742C233.91 76.0171 233.164 76.1413 232.461 76.0468C231.76 75.9472 231.133 75.6523 230.58 75.1622C230.029 74.6671 229.589 73.9978 229.26 73.1545C228.935 72.3218 228.801 71.5214 228.859 70.7533C228.92 69.9837 229.157 69.3007 229.57 68.7041C229.987 68.106 230.567 67.6453 231.31 67.3221C231.762 67.1257 232.229 67.0112 232.712 66.9787C233.195 66.9461 233.669 67.0189 234.132 67.197C234.596 67.3751 235.026 67.6812 235.423 68.1153C235.819 68.5459 236.161 69.1299 236.448 69.8674L236.667 70.4284L230.306 73.195L229.843 72.0094L234.678 69.9067C234.515 69.4903 234.288 69.1578 233.996 68.9093C233.703 68.6571 233.368 68.5033 232.993 68.4477C232.621 68.3906 232.234 68.4496 231.831 68.6249C231.393 68.8152 231.054 69.0908 230.813 69.4515C230.574 69.8072 230.434 70.1983 230.393 70.6247C230.354 71.046 230.414 71.4595 230.573 71.8653L230.934 72.7916C231.146 73.335 231.421 73.7564 231.757 74.0559C232.097 74.3539 232.476 74.5295 232.895 74.5826C233.313 74.6321 233.749 74.558 234.204 74.3601C234.499 74.2317 234.752 74.0723 234.962 73.8818C235.171 73.6879 235.33 73.4659 235.44 73.216C235.549 72.9661 235.601 72.6937 235.596 72.3988L237.176 72.0275C237.23 72.52 237.169 72.9985 236.993 73.4631C236.819 73.9227 236.538 74.3439 236.151 74.7268C235.766 75.1046 235.282 75.4204 234.699 75.6742Z" fill="#D9D9D9"/>
<path d="M249.004 57.6136L254.923 65.5684L255.047 65.5249L255.235 55.4122L257.024 54.78L256.594 67.2668L254.681 67.9426L247.215 58.2458L249.004 57.6136Z" fill="#D9D9D9"/>
<path d="M265.147 64.6405L262.869 56.2158L264.495 55.7258L266.773 64.1505L265.147 64.6405ZM263.339 54.6684C263.056 54.7536 262.787 54.7318 262.532 54.6028C262.281 54.4691 262.119 54.2688 262.046 54.0018C261.973 53.7313 262.011 53.4709 262.159 53.2206C262.309 52.9656 262.526 52.7955 262.809 52.7103C263.092 52.6251 263.359 52.6494 263.611 52.7831C263.866 52.912 264.03 53.1118 264.103 53.3824C264.175 53.6493 264.136 53.9103 263.985 54.1652C263.837 54.4155 263.621 54.5832 263.339 54.6684Z" fill="#D9D9D9"/>
<path d="M277.975 52.0089L276.998 61.3187L275.244 61.7973L270.11 54.1551L271.869 53.675L275.599 59.6163L275.687 59.5924L276.216 52.489L277.975 52.0089Z" fill="#D9D9D9"/>
<path d="M285.13 59.4072L283.374 50.8582L285.03 50.4794L286.786 59.0284L285.13 59.4072ZM283.94 49.3478C283.652 49.4137 283.385 49.3738 283.138 49.2282C282.895 49.078 282.745 48.8674 282.69 48.5966C282.633 48.322 282.687 48.065 282.85 47.8256C283.017 47.5817 283.244 47.4267 283.532 47.3609C283.82 47.295 284.086 47.3372 284.329 47.4874C284.576 47.633 284.727 47.8431 284.783 48.1177C284.839 48.3886 284.784 48.646 284.617 48.8899C284.454 49.1293 284.228 49.282 283.94 49.3478Z" fill="#D9D9D9"/>
<path d="M296.669 57.1807C295.826 57.3503 295.068 57.3156 294.393 57.0765C293.722 56.833 293.162 56.4146 292.712 55.8213C292.265 55.2236 291.962 54.4792 291.801 53.5884C291.642 52.7086 291.665 51.9004 291.871 51.1637C292.08 50.4263 292.446 49.8099 292.969 49.3146C293.495 48.8186 294.155 48.4907 294.95 48.3308C295.433 48.2336 295.915 48.2196 296.397 48.2888C296.879 48.3579 297.331 48.5277 297.753 48.7982C298.175 49.0687 298.54 49.4569 298.847 49.9631C299.153 50.4654 299.376 51.1062 299.517 51.8852L299.624 52.4779L292.823 53.8463L292.597 52.5938L297.766 51.5538C297.686 51.114 297.527 50.7424 297.287 50.439C297.047 50.1319 296.748 49.9121 296.389 49.7796C296.034 49.6462 295.641 49.6229 295.21 49.7096C294.742 49.8037 294.355 50.0015 294.048 50.3028C293.743 50.5997 293.53 50.9517 293.407 51.3588C293.287 51.7615 293.266 52.1771 293.344 52.6058L293.52 53.5843C293.624 54.1583 293.812 54.6265 294.086 54.9887C294.363 55.3502 294.702 55.6006 295.105 55.7398C295.506 55.8753 295.95 55.8942 296.437 55.7963C296.752 55.7328 297.032 55.6302 297.276 55.4884C297.519 55.3429 297.719 55.1598 297.875 54.939C298.031 54.7183 298.136 54.4636 298.187 54.1751L299.815 54.1431C299.773 54.6344 299.62 55.0882 299.357 55.5043C299.096 55.916 298.739 56.268 298.283 56.5605C297.831 56.8485 297.293 57.0552 296.669 57.1807Z" fill="#D9D9D9"/>
<path d="M306.716 50.1013L307.438 55.2325L305.76 55.4958L304.543 46.8539L306.154 46.6011L306.352 48.0077L306.458 47.9909C306.592 47.5022 306.851 47.0859 307.235 46.7419C307.622 46.3974 308.14 46.1744 308.787 46.0728C309.375 45.9806 309.907 46.0236 310.383 46.2019C310.859 46.3764 311.253 46.6865 311.564 47.1321C311.875 47.5778 312.081 48.157 312.182 48.8697L312.956 54.3665L311.278 54.6299L310.532 49.3356C310.444 48.7092 310.212 48.2453 309.837 47.9438C309.461 47.6385 308.989 47.5306 308.42 47.6198C308.031 47.6809 307.696 47.8196 307.417 48.036C307.142 48.2517 306.939 48.5366 306.809 48.8905C306.682 49.2401 306.651 49.6437 306.716 50.1013Z" fill="#D9D9D9"/>
<path d="M321.951 53.5955C321.25 53.6746 320.608 53.5663 320.022 53.2704C319.439 52.9703 318.958 52.5045 318.578 51.8728C318.201 51.2369 317.965 50.4497 317.87 49.5114C317.775 48.573 317.849 47.7527 318.094 47.0503C318.342 46.3475 318.723 45.788 319.237 45.3716C319.751 44.9552 320.355 44.7076 321.052 44.6289C321.59 44.568 322.032 44.6095 322.378 44.7534C322.727 44.8931 323.004 45.0714 323.209 45.2884C323.417 45.5049 323.582 45.6979 323.702 45.8673L323.803 45.8558L323.367 41.5541L325.055 41.3632L326.23 52.94L324.581 53.1265L324.444 51.7755L324.303 51.7914C324.22 51.9876 324.095 52.2152 323.927 52.4743C323.763 52.733 323.524 52.9697 323.211 53.1842C322.898 53.3988 322.478 53.5359 321.951 53.5955ZM322.177 52.1119C322.662 52.057 323.06 51.8825 323.369 51.5883C323.681 51.29 323.9 50.9011 324.027 50.4218C324.157 49.942 324.191 49.3969 324.129 48.7864C324.068 48.1835 323.928 47.6657 323.709 47.233C323.49 46.8004 323.2 46.4767 322.839 46.2621C322.479 46.0475 322.052 45.9681 321.559 46.0238C321.051 46.0813 320.641 46.2611 320.329 46.5632C320.017 46.8653 319.797 47.2541 319.671 47.7297C319.547 48.2048 319.515 48.7288 319.573 49.3016C319.632 49.882 319.772 50.3941 319.992 50.8381C320.212 51.282 320.505 51.6205 320.871 51.8535C321.241 52.0824 321.676 52.1685 322.177 52.1119Z" fill="#D9D9D9"/>
<path d="M334.729 52.6389C334.178 52.6764 333.673 52.6082 333.214 52.4343C332.756 52.2566 332.384 51.98 332.099 51.6045C331.818 51.2288 331.66 50.7554 331.626 50.1845C331.596 49.693 331.665 49.282 331.835 48.9516C332.005 48.6212 332.244 48.3524 332.554 48.1454C332.864 47.9383 333.215 47.774 333.606 47.6526C333.997 47.5311 334.397 47.4318 334.806 47.3547C335.324 47.2588 335.744 47.1809 336.067 47.1211C336.389 47.0574 336.621 46.9752 336.763 46.8745C336.905 46.7737 336.97 46.6212 336.957 46.4171L336.955 46.3774C336.925 45.8821 336.761 45.5078 336.465 45.2546C336.173 45.0011 335.752 44.8929 335.204 44.9301C334.634 44.9689 334.192 45.1261 333.878 45.4017C333.569 45.6733 333.361 45.9665 333.255 46.2812L331.64 46.0264C331.796 45.4842 332.046 45.0383 332.389 44.6885C332.736 44.3346 333.143 44.0678 333.61 43.8881C334.077 43.7045 334.573 43.5949 335.098 43.5592C335.446 43.5356 335.817 43.5522 336.211 43.609C336.609 43.6617 336.985 43.7842 337.338 43.9767C337.695 44.1688 337.995 44.4579 338.239 44.8437C338.482 45.2259 338.623 45.7345 338.662 46.3697L339.015 52.1544L337.359 52.2668L337.287 51.0758L337.219 51.0804C337.122 51.3072 336.971 51.5338 336.765 51.7604C336.559 51.987 336.288 52.182 335.952 52.3452C335.617 52.5084 335.209 52.6064 334.729 52.6389ZM335.015 51.2528C335.484 51.221 335.878 51.1012 336.2 50.8933C336.525 50.6852 336.765 50.4259 336.921 50.1155C337.08 49.8009 337.149 49.4716 337.128 49.1276L337.06 48.0047C337.003 48.0693 336.889 48.1339 336.719 48.1987C336.552 48.2594 336.36 48.316 336.143 48.3687C335.926 48.4176 335.714 48.4643 335.508 48.5086C335.302 48.5492 335.129 48.5837 334.991 48.6121C334.664 48.676 334.368 48.7663 334.102 48.8831C333.84 48.9996 333.633 49.156 333.482 49.3523C333.334 49.5446 333.269 49.792 333.288 50.0944C333.313 50.5141 333.488 50.8212 333.811 51.0157C334.134 51.2063 334.535 51.2854 335.015 51.2528Z" fill="#D9D9D9"/>
<path d="M354.573 55.279C354.319 55.2783 354.088 55.2568 353.88 55.2145C353.671 55.1761 353.516 55.1339 353.414 55.0882L353.827 53.6973C354.137 53.7816 354.414 53.8183 354.656 53.8077C354.898 53.797 355.113 53.7067 355.299 53.5368C355.489 53.3669 355.656 53.0889 355.801 52.703L356.013 52.124L352.842 43.274L354.66 43.2792L356.853 50.0583L356.944 50.0585L359.172 43.2922L360.996 43.2974L357.374 53.1791C357.206 53.6332 356.993 54.017 356.734 54.3307C356.476 54.6481 356.168 54.8859 355.812 55.0439C355.455 55.202 355.042 55.2804 354.573 55.279Z" fill="#D9D9D9"/>
<path d="M375.845 52.9769L373.986 52.8406L378.927 41.5356L380.95 41.684L384.362 53.6015L382.503 53.4652L379.848 43.7224L379.757 43.7158L375.845 52.9769ZM376.456 48.4528L382.485 48.8949L382.388 50.369L376.359 49.9268L376.456 48.4528Z" fill="#D9D9D9"/>
<path d="M389.72 57.7273C389.468 57.6968 389.241 57.6482 389.039 57.5817C388.836 57.519 388.687 57.4589 388.59 57.4014L389.147 56.0668C389.446 56.187 389.717 56.2561 389.959 56.2739C390.2 56.2918 390.423 56.2272 390.625 56.0801C390.832 55.9335 391.028 55.6767 391.212 55.31L391.484 54.7591L389.27 45.5857L391.075 45.8046L392.537 52.8037L392.627 52.8146L395.554 46.3477L397.365 46.5673L392.724 55.9683C392.509 56.4001 392.257 56.7568 391.967 57.0383C391.677 57.3236 391.347 57.5239 390.976 57.6392C390.605 57.7545 390.187 57.7839 389.72 57.7273Z" fill="#D9D9D9"/>
<path d="M407.494 53.4957L408.237 48.4421L409.919 48.7178L408.649 57.3521L407.001 57.082L407.221 55.5867L407.131 55.572C406.865 56.0005 406.491 56.3326 406.008 56.5682C405.53 56.8007 404.968 56.864 404.321 56.7581C403.768 56.6674 403.296 56.4654 402.906 56.152C402.52 55.8354 402.241 55.4155 402.069 54.8923C401.901 54.3696 401.869 53.7523 401.974 53.0403L402.782 47.5482L404.458 47.8229L403.68 53.1126C403.594 53.701 403.687 54.196 403.961 54.5979C404.235 54.9997 404.632 55.2431 405.151 55.3283C405.465 55.3797 405.789 55.3522 406.123 55.2456C406.46 55.1397 406.755 54.9443 407.007 54.6594C407.263 54.3752 407.425 53.9873 407.494 53.4957Z" fill="#D9D9D9"/>
<path d="M417.436 59.4482C416.746 59.3046 416.164 58.9996 415.688 58.5332C415.218 58.0638 414.89 57.4676 414.705 56.7445C414.525 56.0184 414.521 55.1918 414.695 54.2647C414.868 53.3375 415.17 52.5765 415.601 51.9815C416.035 51.3873 416.556 50.9715 417.163 50.7342C417.77 50.4969 418.416 50.4496 419.102 50.5924C419.633 50.7028 420.042 50.8809 420.332 51.1268C420.625 51.3697 420.839 51.627 420.973 51.8986C421.111 52.171 421.214 52.407 421.28 52.6065L421.38 52.6274L422.175 48.3771L423.838 48.7232L421.701 60.1617L420.076 59.8236L420.326 58.4887L420.187 58.4598C420.052 58.6214 419.869 58.7998 419.636 58.995C419.407 59.191 419.113 59.3426 418.753 59.4496C418.394 59.5567 417.955 59.5562 417.436 59.4482ZM418.069 58.1004C418.548 58.1999 418.976 58.1575 419.353 57.973C419.735 57.7855 420.053 57.4824 420.309 57.0636C420.568 56.6457 420.754 56.1351 420.867 55.5319C420.978 54.9361 420.99 54.3971 420.903 53.9148C420.816 53.4325 420.631 53.0322 420.347 52.714C420.064 52.3959 419.679 52.1862 419.193 52.0851C418.693 51.9809 418.251 52.0244 417.869 52.2156C417.486 52.4068 417.168 52.7099 416.913 53.1249C416.662 53.5407 416.483 54.0316 416.378 54.5976C416.27 55.171 416.259 55.7044 416.344 56.1979C416.429 56.6914 416.614 57.1069 416.897 57.4445C417.186 57.7791 417.576 57.9977 418.069 58.1004Z" fill="#D9D9D9"/>
<path d="M429.898 62.5566C429.362 62.4198 428.901 62.1965 428.513 61.8866C428.127 61.573 427.851 61.1919 427.686 60.7433C427.524 60.2957 427.507 59.7931 427.635 59.2355C427.745 58.7555 427.927 58.3839 428.181 58.1205C428.436 57.8572 428.74 57.6749 429.093 57.5736C429.447 57.4723 429.827 57.4246 430.233 57.4306C430.64 57.4367 431.049 57.4667 431.46 57.5208C431.98 57.591 432.402 57.6478 432.726 57.6915C433.051 57.7314 433.295 57.7253 433.458 57.6732C433.622 57.6211 433.726 57.4954 433.772 57.296L433.781 57.2572C433.892 56.7735 433.842 56.3641 433.631 56.029C433.424 55.6948 433.054 55.4598 432.522 55.324C431.968 55.1826 431.503 55.1948 431.127 55.3607C430.755 55.5239 430.475 55.7395 430.285 56.0077L428.819 55.2585C429.121 54.7884 429.485 54.4396 429.91 54.2119C430.34 53.9815 430.802 53.8533 431.298 53.8273C431.794 53.7977 432.297 53.8479 432.807 53.9781C433.145 54.0642 433.493 54.1962 433.853 54.3738C434.217 54.5488 434.54 54.7836 434.822 55.0784C435.108 55.374 435.312 55.7447 435.435 56.1904C435.56 56.6324 435.551 57.1636 435.408 57.7839L434.115 63.433L432.507 63.0229L432.773 61.8598L432.707 61.8429C432.552 62.0299 432.344 62.1996 432.084 62.3521C431.823 62.5045 431.511 62.6065 431.145 62.6579C430.78 62.7093 430.364 62.6755 429.898 62.5566ZM430.561 61.3186C431.016 61.4348 431.425 61.4436 431.79 61.3451C432.158 61.2475 432.46 61.0744 432.696 60.8258C432.936 60.5744 433.094 60.2807 433.171 59.9448L433.422 58.8481C433.35 58.8922 433.224 58.9186 433.043 58.9272C432.867 58.9331 432.668 58.9273 432.447 58.9099C432.226 58.8888 432.012 58.8673 431.803 58.8453C431.595 58.8197 431.421 58.7987 431.281 58.7825C430.953 58.7417 430.645 58.7355 430.359 58.7641C430.076 58.7936 429.836 58.8787 429.636 59.0193C429.442 59.1572 429.31 59.3739 429.243 59.6693C429.149 60.0791 429.228 60.4277 429.481 60.7149C429.735 60.9985 430.094 61.1997 430.561 61.3186Z" fill="#D9D9D9"/>
<path d="M451.449 56.7511L453.472 57.4211L454.41 67.2563L454.539 67.2992L460.635 59.794L462.657 60.4641L459.34 71.6177L457.754 71.0924L460.155 63.0213L460.052 62.9873L454.399 69.9628L453.083 69.5268L452.222 60.3874L452.12 60.3534L449.718 68.43L448.132 67.9046L451.449 56.7511Z" fill="#D9D9D9"/>
<path d="M470.808 72.5611L472.519 67.7481L474.104 68.3755L471.181 76.5989L469.628 75.984L470.134 74.5599L470.05 74.5264C469.707 74.8915 469.278 75.1388 468.761 75.2684C468.25 75.3957 467.69 75.3388 467.081 75.0976C466.559 74.8912 466.139 74.5925 465.82 74.2016C465.506 73.8085 465.316 73.3364 465.251 72.7853C465.189 72.2356 465.279 71.6217 465.52 70.9436L467.379 65.713L468.958 66.3384L467.168 71.3762C466.969 71.9366 466.963 72.4434 467.152 72.8966C467.34 73.3499 467.679 73.6734 468.169 73.8672C468.465 73.9844 468.785 74.0258 469.131 73.9917C469.48 73.9589 469.805 73.8292 470.107 73.6025C470.412 73.3772 470.646 73.0301 470.808 72.5611Z" fill="#D9D9D9"/>
<path d="M483.433 72.6209L482.926 73.887L478.572 71.9464L479.078 70.6803L483.433 72.6209ZM481.023 69.2595L482.575 69.951L479.508 77.616C479.386 77.922 479.338 78.1724 479.366 78.3672C479.396 78.5586 479.47 78.714 479.59 78.8334C479.714 78.951 479.861 79.0475 480.03 79.1231C480.155 79.1786 480.267 79.2184 480.368 79.2424C480.468 79.2664 480.546 79.2848 480.603 79.2973L480.361 80.7252C480.257 80.7203 480.115 80.6984 479.935 80.6596C479.754 80.6243 479.538 80.5528 479.287 80.4453C478.876 80.2704 478.525 80.0269 478.234 79.7149C477.943 79.4029 477.753 79.0365 477.665 78.6158C477.576 78.1951 477.63 77.7404 477.825 77.2515L481.023 69.2595Z" fill="#D9D9D9"/>
<path d="M491.842 82.3796L493.879 77.6955L495.413 78.4387L491.933 86.4418L490.429 85.7135L491.032 84.3275L490.95 84.2879C490.584 84.6276 490.139 84.8433 489.617 84.9349C489.099 85.0247 488.545 84.9267 487.955 84.641C487.451 84.3965 487.053 84.0673 486.763 83.6532C486.477 83.2373 486.321 82.7517 486.295 82.1962C486.271 81.6424 486.403 81.0355 486.69 80.3756L488.904 75.285L490.433 76.0258L488.301 80.9287C488.063 81.4741 488.023 81.9801 488.179 82.4468C488.335 82.9136 488.65 83.2617 489.124 83.4913C489.41 83.63 489.727 83.695 490.073 83.6862C490.423 83.679 490.756 83.5732 491.071 83.3688C491.391 83.1661 491.648 82.8363 491.842 82.3796Z" fill="#D9D9D9"/>
<path d="M499.21 90.6881C498.723 90.4262 498.327 90.0974 498.022 89.7016C497.719 89.3023 497.538 88.8634 497.479 88.3849C497.423 87.9081 497.519 87.4122 497.768 86.897C497.982 86.4535 498.242 86.1333 498.547 85.9364C498.852 85.7395 499.186 85.6337 499.551 85.619C499.915 85.6043 500.293 85.6484 500.684 85.7514C501.076 85.8545 501.464 85.9815 501.849 86.1326C502.336 86.3256 502.731 86.4821 503.034 86.6022C503.339 86.7189 503.577 86.7713 503.746 86.7593C503.916 86.7474 504.045 86.6493 504.134 86.4651L504.151 86.4293C504.367 85.9824 504.411 85.5697 504.282 85.1914C504.157 84.8149 503.853 84.4966 503.369 84.2365C502.865 83.9657 502.413 83.8666 502.013 83.9391C501.617 84.0101 501.297 84.1541 501.054 84.3713L499.806 83.2879C500.203 82.8999 500.633 82.6453 501.094 82.5241C501.561 82.4013 502.037 82.3863 502.522 82.4792C503.008 82.5687 503.483 82.7381 503.947 82.9874C504.254 83.1524 504.561 83.3648 504.868 83.6245C505.181 83.8827 505.44 84.1897 505.646 84.5455C505.856 84.9032 505.971 85.3148 505.99 85.7805C506.01 86.2427 505.882 86.7604 505.606 87.3335L503.087 92.5531L501.626 91.7676L502.145 90.693L502.084 90.6607C501.892 90.8066 501.653 90.923 501.368 91.0101C501.082 91.0971 500.757 91.1221 500.392 91.0851C500.028 91.0482 499.634 90.9158 499.21 90.6881ZM500.128 89.6348C500.542 89.8571 500.936 89.9637 501.31 89.9543C501.687 89.9468 502.018 89.8495 502.301 89.6625C502.59 89.4738 502.809 89.2243 502.959 88.9138L503.448 87.9006C503.368 87.9265 503.24 87.9221 503.063 87.8873C502.892 87.851 502.701 87.7979 502.491 87.728C502.283 87.6547 502.08 87.5823 501.884 87.511C501.689 87.4362 501.525 87.3742 501.394 87.3249C501.085 87.2064 500.79 87.127 500.506 87.0865C500.227 87.0479 499.975 87.0736 499.751 87.1637C499.532 87.2521 499.356 87.4328 499.225 87.7057C499.042 88.0844 499.04 88.4445 499.22 88.786C499.402 89.1241 499.704 89.407 500.128 89.6348Z" fill="#D9D9D9"/>
<path d="M518.341 102.185C517.744 101.81 517.301 101.318 517.01 100.71C516.724 100.101 516.613 99.4207 516.677 98.6695C516.746 97.917 517.013 97.1303 517.477 96.3092C517.941 95.4882 518.471 94.8696 519.067 94.4535C519.666 94.0394 520.288 93.8247 520.931 93.8095C521.574 93.7943 522.192 93.9734 522.785 94.3468C523.243 94.6354 523.567 94.9467 523.757 95.2806C523.951 95.6132 524.066 95.9318 524.103 96.2365C524.143 96.5431 524.161 96.8028 524.158 97.0156L524.244 97.0701L526.372 93.3061L527.81 94.2114L522.083 104.341L520.679 103.457L521.348 102.275L521.227 102.199C521.05 102.306 520.82 102.412 520.539 102.517C520.262 102.624 519.938 102.666 519.568 102.643C519.199 102.621 518.789 102.468 518.341 102.185ZM519.371 101.124C519.784 101.384 520.197 101.492 520.609 101.448C521.026 101.402 521.422 101.224 521.797 100.915C522.175 100.607 522.515 100.186 522.817 99.6523C523.116 99.1247 523.303 98.6166 523.379 98.1281C523.455 97.6396 523.413 97.195 523.253 96.7944C523.093 96.3938 522.802 96.0613 522.383 95.7969C521.95 95.5244 521.524 95.4127 521.105 95.4618C520.686 95.511 520.29 95.6886 519.917 95.9948C519.547 96.3029 519.221 96.7076 518.937 97.2088C518.65 97.7166 518.466 98.2197 518.384 98.7182C518.302 99.2166 518.338 99.6754 518.493 100.094C518.652 100.512 518.945 100.855 519.371 101.124Z" fill="#D9D9D9"/>
<path d="M530.089 110.232C529.382 109.742 528.87 109.165 528.553 108.499C528.241 107.833 528.124 107.118 528.2 106.357C528.282 105.595 528.562 104.829 529.04 104.06C529.512 103.301 530.064 102.726 530.698 102.337C531.335 101.95 532.003 101.765 532.7 101.783C533.4 101.803 534.083 102.044 534.75 102.505C535.155 102.785 535.504 103.126 535.798 103.528C536.092 103.929 536.298 104.382 536.416 104.887C536.535 105.392 536.534 105.942 536.414 106.535C536.297 107.126 536.029 107.757 535.611 108.43L535.294 108.941L529.589 104.993L530.261 103.912L534.596 106.913C534.832 106.533 534.967 106.145 534.999 105.749C535.033 105.349 534.968 104.971 534.803 104.613C534.641 104.257 534.38 103.954 534.018 103.704C533.626 103.432 533.221 103.294 532.805 103.291C532.393 103.287 532.009 103.389 531.652 103.598C531.3 103.805 531.01 104.094 530.78 104.464L530.255 105.309C529.947 105.804 529.769 106.284 529.722 106.748C529.677 107.214 529.75 107.644 529.942 108.039C530.135 108.43 530.435 108.767 530.843 109.049C531.108 109.233 531.374 109.361 531.64 109.435C531.908 109.505 532.17 109.517 532.427 109.469C532.684 109.421 532.926 109.311 533.154 109.137L534.323 110.299C533.967 110.628 533.558 110.848 533.096 110.961C532.64 111.073 532.154 111.07 531.638 110.953C531.129 110.834 530.612 110.594 530.089 110.232Z" fill="#D9D9D9"/>
<path d="M545.635 107.141L539.104 116.772L537.748 115.748L544.279 106.117L545.635 107.141Z" fill="#D9D9D9"/>
<path d="M551.017 126.466L558.032 117.183L561.292 119.927C561.924 120.459 562.365 121.008 562.615 121.575C562.867 122.138 562.957 122.691 562.884 123.233C562.813 123.771 562.604 124.271 562.257 124.73C561.965 125.117 561.65 125.386 561.313 125.537C560.978 125.685 560.636 125.743 560.286 125.711C559.941 125.677 559.605 125.583 559.278 125.426L559.209 125.516C559.493 125.78 559.706 126.123 559.848 126.544C559.995 126.964 560.035 127.42 559.967 127.912C559.898 128.403 559.683 128.889 559.32 129.37C558.961 129.844 558.532 130.18 558.032 130.377C557.537 130.574 556.985 130.596 556.375 130.443C555.767 130.288 555.118 129.919 554.429 129.339L551.017 126.466ZM553.268 126.396L555.206 128.028C555.849 128.569 556.408 128.827 556.883 128.802C557.358 128.776 557.742 128.568 558.037 128.178C558.258 127.885 558.391 127.557 558.434 127.192C558.477 126.828 558.421 126.462 558.267 126.095C558.116 125.731 557.861 125.397 557.501 125.094L555.515 123.422L553.268 126.396ZM556.34 122.33L558.14 123.845C558.441 124.098 558.758 124.266 559.09 124.348C559.424 124.432 559.745 124.425 560.051 124.327C560.363 124.228 560.632 124.029 560.858 123.73C561.148 123.346 561.262 122.916 561.201 122.439C561.139 121.962 560.842 121.499 560.309 121.05L558.475 119.506L556.34 122.33Z" fill="#D9D9D9"/>
<path d="M567.952 136.837L571.206 132.899L572.46 134.053L566.901 140.781L565.672 139.65L566.634 138.485L566.568 138.423C566.123 138.646 565.639 138.728 565.115 138.667C564.596 138.606 564.096 138.353 563.614 137.91C563.201 137.53 562.914 137.099 562.754 136.617C562.598 136.134 562.585 135.621 562.715 135.078C562.848 134.537 563.144 133.989 563.602 133.434L567.138 129.155L568.388 130.305L564.982 134.427C564.604 134.885 564.423 135.362 564.441 135.857C564.459 136.352 564.662 136.777 565.05 137.134C565.284 137.349 565.567 137.502 565.9 137.592C566.235 137.685 566.582 137.678 566.94 137.571C567.302 137.466 567.639 137.222 567.952 136.837Z" fill="#D9D9D9"/>
<path d="M573.595 147.862C572.997 147.265 572.61 146.609 572.434 145.893C572.263 145.177 572.289 144.451 572.511 143.716C572.733 142.981 573.136 142.288 573.721 141.637C574.312 140.977 574.952 140.512 575.641 140.243C576.332 139.971 577.02 139.907 577.704 140.05C578.388 140.193 579.021 140.556 579.602 141.136C580.071 141.605 580.407 142.114 580.61 142.664C580.815 143.211 580.884 143.761 580.816 144.313C580.75 144.868 580.543 145.385 580.194 145.865L579.024 144.697C579.233 144.328 579.321 143.918 579.287 143.468C579.257 143.021 579.05 142.605 578.667 142.223C578.332 141.888 577.955 141.688 577.536 141.622C577.122 141.557 576.693 141.625 576.247 141.827C575.805 142.026 575.376 142.357 574.961 142.82C574.536 143.293 574.238 143.771 574.066 144.251C573.894 144.732 573.848 145.191 573.928 145.629C574.011 146.07 574.222 146.46 574.562 146.8C574.79 147.027 575.036 147.19 575.299 147.287C575.568 147.384 575.84 147.412 576.115 147.372C576.393 147.334 576.662 147.223 576.923 147.04L578.092 148.209C577.673 148.586 577.206 148.831 576.694 148.944C576.181 149.058 575.657 149.027 575.123 148.852C574.592 148.679 574.083 148.349 573.595 147.862Z" fill="#D9D9D9"/>
<path d="M582.481 157.422C581.897 156.79 581.522 156.115 581.356 155.395C581.196 154.676 581.234 153.951 581.472 153.223C581.716 152.494 582.153 151.805 582.783 151.156C583.406 150.514 584.068 150.071 584.769 149.827C585.473 149.585 586.162 149.548 586.838 149.716C587.516 149.886 588.13 150.269 588.68 150.864C589.014 151.225 589.282 151.634 589.482 152.09C589.682 152.547 589.786 153.035 589.793 153.554C589.799 154.074 589.681 154.612 589.437 155.167C589.196 155.72 588.8 156.28 588.248 156.848L587.829 157.28L583.118 152.187L584.005 151.274L587.585 155.145C587.896 154.824 588.11 154.473 588.227 154.092C588.346 153.709 588.364 153.324 588.28 152.938C588.198 152.555 588.009 152.202 587.71 151.879C587.386 151.529 587.022 151.307 586.616 151.214C586.216 151.122 585.82 151.139 585.428 151.266C585.04 151.393 584.695 151.613 584.392 151.926L583.699 152.639C583.293 153.058 583.017 153.489 582.871 153.933C582.727 154.379 582.706 154.816 582.808 155.244C582.912 155.668 583.133 156.063 583.47 156.427C583.688 156.664 583.919 156.846 584.163 156.976C584.409 157.103 584.662 157.17 584.922 157.179C585.183 157.188 585.443 157.132 585.702 157.011L586.592 158.399C586.175 158.645 585.729 158.773 585.255 158.783C584.786 158.794 584.313 158.687 583.836 158.461C583.365 158.235 582.913 157.889 582.481 157.422Z" fill="#D9D9D9"/>
<path d="M591.117 167.495C590.586 166.873 590.259 166.2 590.135 165.478C590.012 164.755 590.085 164.034 590.355 163.313C590.625 162.592 591.087 161.922 591.741 161.301C592.398 160.677 593.081 160.261 593.792 160.05C594.502 159.84 595.191 159.838 595.859 160.044C596.526 160.25 597.125 160.664 597.656 161.287C598.187 161.91 598.514 162.582 598.637 163.305C598.761 164.027 598.686 164.75 598.413 165.473C598.14 166.197 597.675 166.87 597.019 167.493C596.365 168.114 595.684 168.528 594.977 168.736C594.269 168.944 593.582 168.944 592.914 168.738C592.246 168.532 591.647 168.118 591.117 167.495ZM592.155 166.518C592.499 166.921 592.885 167.159 593.315 167.232C593.744 167.304 594.181 167.243 594.627 167.049C595.076 166.858 595.503 166.569 595.91 166.183C596.314 165.8 596.629 165.383 596.857 164.933C597.089 164.482 597.195 164.027 597.175 163.566C597.155 163.105 596.973 162.673 596.629 162.269C596.283 161.863 595.893 161.623 595.458 161.551C595.026 161.481 594.584 161.543 594.133 161.737C593.687 161.931 593.262 162.219 592.858 162.603C592.452 162.989 592.134 163.406 591.904 163.853C591.677 164.304 591.574 164.758 591.597 165.216C591.622 165.678 591.808 166.111 592.155 166.518Z" fill="#D9D9D9"/>
<path d="M350 14C535.568 14 686 164.432 686 350C686 535.568 535.568 686 350 686C164.432 686 14 535.568 14 350C14 164.432 164.432 14 350 14Z" stroke="#D9D9D9" stroke-width="10"/>
</g>
<defs>
<clipPath id="clip0_1_3">
<rect width="700" height="700" fill="white"/>
</clipPath>
</defs>
</svg>
