<svg width="700" height="700" viewBox="0 0 700 700" fill="none" xmlns="http://www.w3.org/2000/svg">
<g clip-path="url(#clip0_1_3)">
<path d="M681 350C681 532.806 532.806 681 350 681C167.194 681 19 532.806 19 350C19 167.194 167.194 19 350 19C532.806 19 681 167.194 681 350Z" fill="#40752B"/>
<path d="M338.452 314.026C344.396 307.556 354.603 307.556 360.546 314.026L493.112 458.353C496.438 461.974 497.544 466.434 496.933 470.588C496.976 471.053 496.999 471.524 496.999 472V618C496.999 626.284 490.284 633 481.999 633H389V562.5C389 540.685 371.315 523 349.5 523C327.685 523 310 540.685 310 562.5V633H216.999C208.715 633 201.999 626.284 201.999 618V472C201.999 471.525 202.023 471.056 202.066 470.593C201.453 466.438 202.559 461.976 205.887 458.353L338.452 314.026Z" fill="#D9D9D9"/>
<path d="M338.599 253.853C344.542 247.382 354.75 247.382 360.693 253.853L537.309 446.137C546.142 455.755 539.32 471.285 526.262 471.285H524.409L360.693 293.044C354.75 286.574 344.542 286.574 338.599 293.044L174.882 471.285H173.029C159.971 471.284 153.149 455.755 161.982 446.137L338.599 253.853Z" fill="#DB411E"/>
<path d="M241 339.101L193.21 391H193V315H241V339.101Z" fill="#DB411E"/>
<path d="M571.791 281.187C576.524 276.195 584.476 276.195 589.209 281.187L666.521 362.745C669.12 365.486 670.089 368.866 669.779 372.073C670.052 373.204 670.198 374.386 670.198 375.601V434.184C667.196 445.636 663.595 456.846 659.432 467.778C658.089 468.172 656.669 468.385 655.198 468.385H604.058V425.21C604.057 411.851 593.227 401.02 579.867 401.02C566.508 401.02 555.678 411.851 555.678 425.21V438.695L491.477 368.216C491.478 368.214 491.48 368.211 491.481 368.208C491.942 366.274 492.916 364.394 494.479 362.745L571.791 281.187Z" fill="#D9D9D9"/>
<path d="M568.91 240.853C574.854 234.383 585.061 234.382 591.004 240.853L680.807 338.623C680.934 342.4 681 346.192 681 350C681 354.211 680.921 358.404 680.765 362.577L591.004 264.854C585.061 258.384 574.854 258.384 568.91 264.854L482.759 358.646L472.015 346.852C472.555 345.933 473.209 345.045 473.982 344.202L568.91 240.853ZM513.421 288.398L484.154 320.182H484.025V273.639H513.421V288.398Z" fill="#DB411E"/>
<path d="M234.841 134.182H225.227C225.159 133.386 224.977 132.665 224.682 132.017C224.398 131.369 224 130.812 223.489 130.347C222.989 129.869 222.381 129.506 221.665 129.256C220.949 128.994 220.136 128.864 219.227 128.864C217.636 128.864 216.29 129.25 215.188 130.023C214.097 130.795 213.267 131.903 212.699 133.347C212.142 134.79 211.864 136.523 211.864 138.545C211.864 140.682 212.148 142.472 212.716 143.915C213.295 145.347 214.131 146.426 215.222 147.153C216.313 147.869 217.625 148.227 219.159 148.227C220.034 148.227 220.818 148.119 221.511 147.903C222.205 147.676 222.807 147.352 223.318 146.932C223.83 146.511 224.244 146.006 224.562 145.415C224.892 144.812 225.114 144.136 225.227 143.386L234.841 143.455C234.727 144.932 234.313 146.437 233.597 147.972C232.881 149.494 231.864 150.903 230.545 152.199C229.239 153.483 227.619 154.517 225.688 155.301C223.756 156.085 221.511 156.477 218.955 156.477C215.75 156.477 212.875 155.79 210.33 154.415C207.795 153.04 205.79 151.017 204.312 148.347C202.847 145.676 202.114 142.409 202.114 138.545C202.114 134.659 202.864 131.386 204.364 128.727C205.864 126.057 207.886 124.04 210.432 122.676C212.977 121.301 215.818 120.614 218.955 120.614C221.159 120.614 223.188 120.915 225.04 121.517C226.892 122.119 228.517 123 229.915 124.159C231.313 125.307 232.438 126.722 233.29 128.403C234.142 130.085 234.659 132.011 234.841 134.182ZM272.959 138.545C272.959 142.432 272.203 145.71 270.692 148.381C269.18 151.04 267.141 153.057 264.572 154.432C262.004 155.795 259.141 156.477 255.982 156.477C252.8 156.477 249.925 155.79 247.357 154.415C244.8 153.028 242.766 151.006 241.254 148.347C239.754 145.676 239.004 142.409 239.004 138.545C239.004 134.659 239.754 131.386 241.254 128.727C242.766 126.057 244.8 124.04 247.357 122.676C249.925 121.301 252.8 120.614 255.982 120.614C259.141 120.614 262.004 121.301 264.572 122.676C267.141 124.04 269.18 126.057 270.692 128.727C272.203 131.386 272.959 134.659 272.959 138.545ZM263.209 138.545C263.209 136.455 262.93 134.693 262.374 133.261C261.828 131.818 261.016 130.727 259.936 129.989C258.868 129.239 257.55 128.864 255.982 128.864C254.413 128.864 253.089 129.239 252.01 129.989C250.942 130.727 250.129 131.818 249.572 133.261C249.027 134.693 248.754 136.455 248.754 138.545C248.754 140.636 249.027 142.403 249.572 143.847C250.129 145.278 250.942 146.369 252.01 147.119C253.089 147.858 254.413 148.227 255.982 148.227C257.55 148.227 258.868 147.858 259.936 147.119C261.016 146.369 261.828 145.278 262.374 143.847C262.93 142.403 263.209 140.636 263.209 138.545ZM284.686 121.091L291.845 145.705H292.118L299.277 121.091H309.982L298.459 156H285.504L273.982 121.091H284.686ZM322.821 121.091V156H313.344V121.091H322.821ZM327.312 156V121.091H342.449C345.108 121.091 347.341 121.449 349.148 122.165C350.966 122.881 352.335 123.892 353.256 125.199C354.188 126.506 354.653 128.045 354.653 129.818C354.653 131.102 354.369 132.273 353.801 133.33C353.244 134.386 352.46 135.273 351.449 135.989C350.438 136.693 349.256 137.182 347.903 137.455V137.795C349.403 137.852 350.767 138.233 351.994 138.938C353.222 139.631 354.199 140.591 354.926 141.818C355.653 143.034 356.017 144.466 356.017 146.114C356.017 148.023 355.517 149.722 354.517 151.21C353.528 152.699 352.119 153.869 350.29 154.722C348.46 155.574 346.278 156 343.744 156H327.312ZM336.79 148.432H341.222C342.813 148.432 344.006 148.136 344.801 147.545C345.597 146.943 345.994 146.057 345.994 144.886C345.994 144.068 345.807 143.375 345.432 142.807C345.057 142.239 344.523 141.807 343.83 141.511C343.148 141.216 342.324 141.068 341.358 141.068H336.79V148.432ZM336.79 135.205H340.676C341.506 135.205 342.239 135.074 342.875 134.812C343.511 134.551 344.006 134.176 344.358 133.688C344.722 133.188 344.903 132.58 344.903 131.864C344.903 130.784 344.517 129.96 343.744 129.392C342.972 128.812 341.994 128.523 340.812 128.523H336.79V135.205ZM380.034 121.091H389.511V143.455C389.511 146.114 388.875 148.415 387.602 150.358C386.341 152.29 384.58 153.784 382.318 154.841C380.057 155.886 377.432 156.409 374.443 156.409C371.432 156.409 368.795 155.886 366.534 154.841C364.273 153.784 362.511 152.29 361.25 150.358C360 148.415 359.375 146.114 359.375 143.455V121.091H368.852V142.636C368.852 143.716 369.091 144.682 369.568 145.534C370.045 146.375 370.705 147.034 371.545 147.511C372.398 147.989 373.364 148.227 374.443 148.227C375.534 148.227 376.5 147.989 377.341 147.511C378.182 147.034 378.841 146.375 379.318 145.534C379.795 144.682 380.034 143.716 380.034 142.636V121.091ZM426.607 134.182H416.993C416.925 133.386 416.743 132.665 416.447 132.017C416.163 131.369 415.766 130.812 415.254 130.347C414.754 129.869 414.146 129.506 413.43 129.256C412.714 128.994 411.902 128.864 410.993 128.864C409.402 128.864 408.055 129.25 406.953 130.023C405.862 130.795 405.033 131.903 404.464 133.347C403.908 134.79 403.629 136.523 403.629 138.545C403.629 140.682 403.913 142.472 404.482 143.915C405.061 145.347 405.896 146.426 406.987 147.153C408.078 147.869 409.391 148.227 410.925 148.227C411.8 148.227 412.584 148.119 413.277 147.903C413.97 147.676 414.572 147.352 415.084 146.932C415.595 146.511 416.01 146.006 416.328 145.415C416.658 144.812 416.879 144.136 416.993 143.386L426.607 143.455C426.493 144.932 426.078 146.437 425.362 147.972C424.646 149.494 423.629 150.903 422.311 152.199C421.004 153.483 419.385 154.517 417.453 155.301C415.521 156.085 413.277 156.477 410.72 156.477C407.516 156.477 404.641 155.79 402.095 154.415C399.561 153.04 397.555 151.017 396.078 148.347C394.612 145.676 393.879 142.409 393.879 138.545C393.879 134.659 394.629 131.386 396.129 128.727C397.629 126.057 399.652 124.04 402.197 122.676C404.743 121.301 407.584 120.614 410.72 120.614C412.925 120.614 414.953 120.915 416.805 121.517C418.658 122.119 420.283 123 421.68 124.159C423.078 125.307 424.203 126.722 425.055 128.403C425.908 130.085 426.425 132.011 426.607 134.182ZM430.906 156V121.091H456.065V128.727H440.384V134.727H454.77V142.364H440.384V148.364H455.997V156H430.906ZM494.584 138.545C494.584 142.432 493.828 145.71 492.317 148.381C490.805 151.04 488.766 153.057 486.197 154.432C483.629 155.795 480.766 156.477 477.607 156.477C474.425 156.477 471.55 155.79 468.982 154.415C466.425 153.028 464.391 151.006 462.879 148.347C461.379 145.676 460.629 142.409 460.629 138.545C460.629 134.659 461.379 131.386 462.879 128.727C464.391 126.057 466.425 124.04 468.982 122.676C471.55 121.301 474.425 120.614 477.607 120.614C480.766 120.614 483.629 121.301 486.197 122.676C488.766 124.04 490.805 126.057 492.317 128.727C493.828 131.386 494.584 134.659 494.584 138.545ZM484.834 138.545C484.834 136.455 484.555 134.693 483.999 133.261C483.453 131.818 482.641 130.727 481.561 129.989C480.493 129.239 479.175 128.864 477.607 128.864C476.038 128.864 474.714 129.239 473.635 129.989C472.567 130.727 471.754 131.818 471.197 133.261C470.652 134.693 470.379 136.455 470.379 138.545C470.379 140.636 470.652 142.403 471.197 143.847C471.754 145.278 472.567 146.369 473.635 147.119C474.714 147.858 476.038 148.227 477.607 148.227C479.175 148.227 480.493 147.858 481.561 147.119C482.641 146.369 483.453 145.278 483.999 143.847C484.555 142.403 484.834 140.636 484.834 138.545Z" fill="#D9D9D9"/>
<circle cx="541" cy="210" r="26" fill="#FFE048"/>
<path d="M91.3086 282.132C96.0381 277.163 103.963 277.163 108.692 282.132L174 350.742V405.487L124.012 460.443V425.152C124.012 411.797 113.184 400.969 99.8281 400.969C86.4724 400.969 75.6455 411.797 75.6455 425.152V468.315H35.4238C23.0336 435.387 15.6638 400.001 14.25 363.088L91.3086 282.132Z" fill="#D9D9D9"/>
<path d="M-0.000244141 361.602L-4.20044 366.175C-10.6092 361.141 -12.3994 351.109 -6.01782 344.161L-0.000244141 337.609V361.602ZM88.8708 240.853C94.8143 234.383 105.022 234.382 110.966 240.853L174 309.479V333.474L110.966 264.847C105.022 258.377 94.8143 258.377 88.8708 264.847L14.0212 346.336C14.1122 337.819 14.5195 329.377 15.2332 321.023L88.8708 240.853ZM33.4021 288.38L16.8035 306.406C18.2423 295.3 20.2235 284.364 22.7195 273.626H33.4021V288.38Z" fill="#DB411E"/>
<path d="M107.769 160.37L106.016 162.606C105.773 162.444 105.527 162.332 105.277 162.27C105.028 162.208 104.781 162.198 104.536 162.241C104.292 162.283 104.055 162.38 103.826 162.532C103.596 162.677 103.383 162.876 103.187 163.126C102.838 163.57 102.642 164.044 102.598 164.548C102.556 165.049 102.665 165.558 102.923 166.075C103.183 166.588 103.593 167.089 104.153 167.578C104.735 168.086 105.29 168.425 105.82 168.596C106.348 168.762 106.836 168.774 107.284 168.632C107.731 168.485 108.125 168.194 108.466 167.758C108.658 167.514 108.802 167.266 108.898 167.014C108.997 166.759 109.049 166.505 109.054 166.254C109.059 165.996 109.017 165.746 108.929 165.503C108.84 165.255 108.705 165.019 108.524 164.796L110.29 162.572C110.647 162.949 110.937 163.401 111.16 163.926C111.384 164.449 111.519 165.016 111.564 165.627C111.605 166.236 111.526 166.865 111.325 167.513C111.127 168.159 110.781 168.796 110.288 169.425C109.639 170.254 108.883 170.844 108.021 171.196C107.158 171.543 106.243 171.612 105.276 171.406C104.309 171.199 103.344 170.675 102.383 169.836C101.418 168.994 100.751 168.088 100.382 167.118C100.013 166.148 99.9117 165.183 100.078 164.223C100.244 163.263 100.646 162.376 101.283 161.562C101.718 161.008 102.194 160.56 102.712 160.218C103.226 159.874 103.765 159.647 104.328 159.536C104.888 159.422 105.46 159.432 106.043 159.564C106.626 159.697 107.202 159.966 107.769 160.37Z" fill="#D9D9D9"/>
<path d="M119.502 158.584C118.903 159.278 118.253 159.745 117.553 159.984C116.851 160.218 116.141 160.236 115.423 160.038C114.704 159.835 114.022 159.424 113.377 158.805C112.73 158.183 112.278 157.505 112.022 156.771C111.766 156.032 111.716 155.284 111.874 154.528C112.031 153.766 112.409 153.038 113.008 152.344C113.607 151.65 114.257 151.186 114.958 150.952C115.659 150.713 116.369 150.695 117.088 150.898C117.806 151.096 118.489 151.505 119.137 152.127C119.781 152.747 120.232 153.426 120.488 154.165C120.744 154.899 120.794 155.647 120.636 156.409C120.479 157.165 120.101 157.89 119.502 158.584ZM118.001 157.118C118.219 156.866 118.33 156.581 118.333 156.265C118.336 155.948 118.247 155.618 118.063 155.274C117.883 154.927 117.621 154.589 117.276 154.258C116.927 153.922 116.58 153.676 116.236 153.518C115.895 153.358 115.575 153.295 115.277 153.328C114.978 153.361 114.72 153.504 114.502 153.756C114.277 154.017 114.16 154.309 114.152 154.632C114.146 154.951 114.234 155.284 114.414 155.631C114.597 155.975 114.863 156.314 115.213 156.65C115.557 156.981 115.9 157.226 116.241 157.387C116.585 157.544 116.908 157.604 117.209 157.568C117.512 157.529 117.776 157.379 118.001 157.118Z" fill="#D9D9D9"/>
<path d="M128.695 148.614C128.068 149.283 127.4 149.723 126.689 149.933C125.979 150.137 125.269 150.126 124.56 149.899C123.85 149.666 123.185 149.227 122.567 148.582C121.946 147.934 121.523 147.237 121.297 146.494C121.072 145.744 121.053 144.995 121.242 144.246C121.431 143.491 121.838 142.78 122.465 142.111C123.092 141.442 123.76 141.005 124.47 140.801C125.181 140.591 125.891 140.602 126.6 140.834C127.31 141.061 127.976 141.499 128.597 142.147C129.215 142.793 129.637 143.49 129.863 144.24C130.088 144.984 130.107 145.733 129.918 146.487C129.729 147.236 129.322 147.945 128.695 148.614ZM127.256 147.088C127.484 146.845 127.606 146.565 127.623 146.248C127.639 145.932 127.563 145.598 127.395 145.247C127.228 144.894 126.98 144.544 126.65 144.2C126.315 143.85 125.979 143.589 125.642 143.417C125.307 143.243 124.99 143.167 124.691 143.188C124.391 143.209 124.127 143.341 123.9 143.584C123.664 143.835 123.535 144.122 123.513 144.444C123.494 144.763 123.568 145.099 123.734 145.453C123.903 145.804 124.155 146.155 124.49 146.505C124.82 146.85 125.153 147.109 125.487 147.283C125.824 147.454 126.144 147.528 126.446 147.505C126.75 147.478 127.02 147.339 127.256 147.088Z" fill="#D9D9D9"/>
<path d="M137.421 144.24L129.484 135.239L131.446 133.312L132.435 134.433L132.495 134.373C132.401 134.095 132.347 133.79 132.333 133.46C132.321 133.126 132.38 132.787 132.51 132.442C132.64 132.092 132.868 131.757 133.195 131.435C133.628 131.011 134.137 130.733 134.723 130.603C135.312 130.47 135.941 130.538 136.612 130.807C137.283 131.076 137.958 131.595 138.637 132.365C139.291 133.107 139.726 133.838 139.942 134.558C140.162 135.276 140.192 135.945 140.035 136.567C139.879 137.186 139.572 137.721 139.113 138.172C138.799 138.48 138.48 138.693 138.155 138.811C137.83 138.928 137.512 138.976 137.2 138.954C136.891 138.929 136.605 138.857 136.343 138.737L136.303 138.777L139.403 142.293L137.421 144.24ZM134.312 136.605C134.623 136.957 134.938 137.22 135.257 137.394C135.58 137.565 135.89 137.64 136.188 137.617C136.486 137.59 136.756 137.458 136.996 137.221C137.239 136.982 137.383 136.708 137.428 136.399C137.471 136.087 137.42 135.758 137.276 135.411C137.135 135.062 136.909 134.712 136.598 134.36C136.287 134.007 135.974 133.746 135.656 133.575C135.342 133.401 135.037 133.327 134.742 133.352C134.449 133.375 134.179 133.507 133.933 133.748C133.69 133.987 133.545 134.26 133.497 134.566C133.45 134.873 133.494 135.2 133.63 135.549C133.769 135.895 133.996 136.247 134.312 136.605Z" fill="#D9D9D9"/>
<path d="M148.363 129.791C147.686 130.403 146.988 130.791 146.269 130.955C145.551 131.115 144.849 131.053 144.162 130.771C143.476 130.483 142.841 129.978 142.257 129.257C141.689 128.557 141.325 127.825 141.165 127.063C141.003 126.298 141.044 125.552 141.289 124.827C141.531 124.099 141.978 123.44 142.631 122.851C143.092 122.435 143.574 122.129 144.078 121.934C144.582 121.739 145.093 121.663 145.61 121.706C146.126 121.749 146.637 121.917 147.143 122.21C147.645 122.5 148.122 122.923 148.573 123.48L149.009 124.018L143.379 129.101L142.363 127.847L146.074 124.497C145.886 124.27 145.668 124.112 145.421 124.024C145.174 123.936 144.922 123.922 144.664 123.982C144.406 124.036 144.163 124.166 143.935 124.371C143.705 124.58 143.542 124.821 143.448 125.094C143.351 125.365 143.324 125.642 143.367 125.924C143.408 126.203 143.52 126.461 143.703 126.698L144.737 127.974C144.961 128.251 145.21 128.447 145.483 128.562C145.754 128.674 146.032 128.701 146.316 128.643C146.6 128.585 146.874 128.437 147.139 128.198C147.321 128.034 147.466 127.857 147.572 127.67C147.678 127.482 147.743 127.289 147.766 127.089C147.79 126.89 147.767 126.691 147.699 126.493L149.639 124.841C149.921 125.356 150.061 125.899 150.061 126.47C150.062 127.035 149.921 127.603 149.638 128.174C149.354 128.742 148.929 129.281 148.363 129.791Z" fill="#D9D9D9"/>
<path d="M155.265 123.713L150.048 116.716L152.124 114.992L153.075 116.267L153.145 116.209C152.923 115.646 152.867 115.137 152.976 114.682C153.083 114.225 153.32 113.843 153.688 113.538C153.787 113.456 153.894 113.379 154.01 113.307C154.124 113.232 154.237 113.171 154.347 113.123L155.791 115.059C155.662 115.107 155.506 115.19 155.324 115.306C155.145 115.421 154.992 115.531 154.863 115.638C154.61 115.848 154.425 116.097 154.31 116.385C154.195 116.668 154.157 116.962 154.197 117.268C154.237 117.569 154.361 117.859 154.57 118.139L157.402 121.937L155.265 123.713Z" fill="#D9D9D9"/>
<path d="M165.189 115.974C164.75 116.316 164.307 116.544 163.86 116.657C163.414 116.765 162.983 116.74 162.569 116.583C162.156 116.421 161.784 116.104 161.454 115.632C161.176 115.234 161.009 114.847 160.953 114.469C160.896 114.091 160.927 113.725 161.043 113.37C161.16 113.015 161.342 112.675 161.589 112.348C161.834 112.019 162.12 111.702 162.448 111.399C162.814 111.057 163.102 110.772 163.313 110.546C163.522 110.316 163.653 110.121 163.706 109.959C163.76 109.792 163.736 109.636 163.634 109.49L163.618 109.467C163.451 109.228 163.243 109.105 162.993 109.098C162.744 109.091 162.484 109.192 162.215 109.401C161.925 109.627 161.738 109.874 161.653 110.141C161.567 110.409 161.581 110.676 161.694 110.943L159.62 112.443C159.376 111.962 159.259 111.454 159.268 110.919C159.278 110.379 159.433 109.841 159.733 109.306C160.033 108.765 160.491 108.255 161.107 107.776C161.546 107.434 161.989 107.173 162.436 106.993C162.88 106.81 163.312 106.714 163.73 106.705C164.146 106.692 164.532 106.775 164.887 106.954C165.246 107.13 165.557 107.408 165.822 107.787L169.22 112.649L167.158 114.254L166.462 113.258L166.408 113.3C166.454 113.637 166.441 113.964 166.367 114.281C166.296 114.595 166.161 114.894 165.962 115.178C165.767 115.46 165.509 115.725 165.189 115.974ZM164.825 113.957C165.061 113.773 165.238 113.558 165.357 113.312C165.479 113.064 165.536 112.808 165.528 112.546C165.518 112.281 165.432 112.032 165.269 111.799L164.794 111.119C164.755 111.202 164.7 111.292 164.63 111.39C164.563 111.485 164.486 111.586 164.398 111.693C164.311 111.799 164.219 111.904 164.121 112.009C164.024 112.114 163.929 112.214 163.839 112.308C163.656 112.503 163.517 112.693 163.42 112.878C163.327 113.062 163.281 113.241 163.284 113.416C163.287 113.586 163.343 113.749 163.452 113.904C163.617 114.14 163.823 114.257 164.071 114.256C164.323 114.252 164.574 114.152 164.825 113.957Z" fill="#D9D9D9"/>
<path d="M172.834 99.4131L173.939 101.134L169.462 104.338L168.356 102.617L172.834 99.4131ZM168.165 100.186L170.424 98.5695L174.787 105.363C174.879 105.506 174.976 105.607 175.076 105.666C175.177 105.719 175.284 105.734 175.394 105.71C175.503 105.683 175.618 105.627 175.738 105.541C175.824 105.479 175.91 105.406 175.995 105.322C176.081 105.233 176.145 105.164 176.186 105.116L177.612 106.559C177.525 106.668 177.398 106.817 177.231 107.006C177.068 107.192 176.855 107.389 176.592 107.596C176.078 108 175.583 108.261 175.106 108.38C174.63 108.492 174.186 108.456 173.775 108.271C173.367 108.084 173.006 107.739 172.693 107.238L168.165 100.186Z" fill="#D9D9D9"/>
<path d="M181.747 103.953L177.254 96.4707L179.564 94.9259L184.057 102.408L181.747 103.953ZM177.888 94.8248C177.564 95.0417 177.219 95.1177 176.853 95.0527C176.486 94.9845 176.207 94.7929 176.018 94.4779C175.831 94.1662 175.787 93.822 175.888 93.4453C175.986 93.0654 176.198 92.7669 176.522 92.55C176.849 92.331 177.195 92.2566 177.56 92.327C177.925 92.3919 178.202 92.5803 178.389 92.892C178.578 93.207 178.623 93.5545 178.525 93.9344C178.428 94.309 178.215 94.6058 177.888 94.8248Z" fill="#D9D9D9"/>
<path d="M191.383 87.4266L193.162 96.6166L190.473 98.3173L183.638 92.3255L186.111 90.7614L190.438 95.1294L190.515 95.0808L188.91 88.9907L191.383 87.4266Z" fill="#D9D9D9"/>
<path d="M201.683 91.8374C201.2 92.1156 200.729 92.2803 200.27 92.3313C199.812 92.377 199.388 92.2941 198.997 92.0827C198.608 91.8661 198.281 91.5021 198.016 90.9909C197.793 90.5603 197.679 90.1545 197.673 89.7733C197.668 89.3921 197.746 89.0343 197.91 88.6997C198.073 88.3652 198.299 88.0533 198.589 87.7642C198.876 87.4717 199.203 87.1978 199.569 86.9427C199.978 86.6544 200.303 86.4126 200.542 86.2175C200.781 86.0189 200.937 85.8435 201.011 85.6913C201.088 85.5338 201.085 85.376 201.003 85.2179L200.99 85.1927C200.856 84.9337 200.665 84.7838 200.418 84.7428C200.171 84.7019 199.9 84.7666 199.604 84.937C199.286 85.1206 199.067 85.3389 198.946 85.5918C198.826 85.8448 198.804 86.1109 198.88 86.39L196.619 87.5899C196.441 87.0812 196.392 86.5633 196.473 86.0362C196.555 85.5038 196.781 84.9935 197.15 84.5052C197.521 84.0117 198.044 83.5699 198.72 83.1799C199.202 82.9017 199.677 82.704 200.145 82.587C200.611 82.4667 201.053 82.4304 201.469 82.4782C201.885 82.5227 202.257 82.6574 202.586 82.8823C202.919 83.1052 203.192 83.4219 203.404 83.8323L206.133 89.0995L203.869 90.4057L203.309 89.326L203.25 89.3601C203.252 89.7 203.194 90.0214 203.079 90.3242C202.966 90.6251 202.792 90.9023 202.557 91.156C202.325 91.4077 202.034 91.6348 201.683 91.8374ZM201.59 89.7941C201.849 89.6446 202.054 89.4563 202.205 89.2295C202.359 89.0007 202.45 88.7561 202.477 88.4958C202.502 88.2322 202.45 87.9742 202.319 87.722L201.937 86.9854C201.888 87.0621 201.821 87.144 201.739 87.2311C201.659 87.3162 201.569 87.4054 201.468 87.4986C201.367 87.5917 201.261 87.6834 201.15 87.7737C201.039 87.8639 200.932 87.9496 200.83 88.0308C200.622 88.1984 200.458 88.3672 200.338 88.5374C200.22 88.7056 200.151 88.8765 200.13 89.0502C200.111 89.2186 200.145 89.3869 200.232 89.5551C200.364 89.8107 200.554 89.9547 200.801 89.987C201.051 90.0174 201.314 89.9531 201.59 89.7941Z" fill="#D9D9D9"/>
<path d="M221.449 81.5399C220.87 81.8225 220.277 81.9266 219.67 81.8524C219.063 81.7781 218.485 81.5047 217.935 81.032C217.385 80.5594 216.911 79.8703 216.514 78.9649C216.102 78.0247 215.909 77.1796 215.936 76.4296C215.962 75.6795 216.148 75.0433 216.494 74.5208C216.843 73.9967 217.291 73.6009 217.839 73.3333C218.251 73.1322 218.635 73.033 218.992 73.0358C219.347 73.0351 219.669 73.1009 219.958 73.2334C220.248 73.3658 220.495 73.5293 220.7 73.724L220.751 73.699L218.984 69.6661L221.48 68.4469L226.152 79.1044L223.681 80.311L223.113 79.0153L223.036 79.0527C223.039 79.3505 222.99 79.6544 222.89 79.9642C222.791 80.274 222.623 80.5663 222.388 80.8411C222.157 81.1142 221.844 81.3471 221.449 81.5399ZM221.448 79.1335C221.751 78.9855 221.971 78.7725 222.11 78.4943C222.246 78.2127 222.303 77.884 222.279 77.5083C222.254 77.1326 222.148 76.7297 221.96 76.2995C221.768 75.8624 221.545 75.5143 221.291 75.2551C221.04 74.9942 220.769 74.832 220.476 74.7684C220.187 74.7031 219.891 74.7444 219.589 74.8923C219.279 75.0436 219.055 75.2583 218.916 75.5365C218.778 75.8146 218.722 76.139 218.748 76.5095C218.777 76.8784 218.886 77.278 219.075 77.7081C219.263 78.1383 219.484 78.4856 219.736 78.7499C219.988 79.0142 220.259 79.1833 220.547 79.2572C220.838 79.3259 221.138 79.2847 221.448 79.1335Z" fill="#D9D9D9"/>
<path d="M234.747 75.641C233.91 76.005 233.122 76.1516 232.383 76.0807C231.646 76.0048 230.993 75.7256 230.422 75.2431C229.854 74.7555 229.401 74.0794 229.064 73.2149C228.736 72.3751 228.613 71.5702 228.694 70.8001C228.774 70.0265 229.043 69.3359 229.5 68.7282C229.957 68.1171 230.588 67.6363 231.394 67.2858C231.963 67.0381 232.519 66.9015 233.062 66.876C233.605 66.8505 234.117 66.9394 234.599 67.1427C235.08 67.346 235.518 67.6655 235.911 68.1011C236.304 68.5332 236.63 69.0827 236.89 69.7496L237.142 70.3953L230.186 73.4202L229.599 71.9171L234.185 69.9231C234.074 69.6494 233.914 69.4321 233.705 69.2713C233.496 69.1104 233.258 69.0176 232.993 68.9928C232.729 68.9629 232.456 69.0092 232.175 69.1315C231.89 69.2554 231.66 69.4317 231.486 69.6604C231.309 69.8857 231.199 70.1381 231.153 70.4178C231.107 70.694 231.135 70.973 231.236 71.2547L231.834 72.7844C231.963 73.1161 232.141 73.3792 232.367 73.5739C232.592 73.765 232.85 73.878 233.14 73.9129C233.429 73.9478 233.738 73.8942 234.064 73.7522C234.29 73.654 234.483 73.5331 234.642 73.3896C234.801 73.246 234.923 73.0838 235.007 72.9029C235.09 72.7219 235.13 72.5272 235.126 72.3185L237.492 71.3699C237.603 71.9451 237.57 72.502 237.395 73.0407C237.221 73.5743 236.911 74.0661 236.465 74.516C236.018 74.9623 235.445 75.3373 234.747 75.641Z" fill="#D9D9D9"/>
<path d="M250.162 57.2047L255.192 64.4617L255.283 64.4295L255.16 55.4387L258.128 54.39L257.944 66.7898L254.414 68.0372L247.194 58.2534L250.162 57.2047Z" fill="#D9D9D9"/>
<path d="M264.896 64.7159L262.618 56.2912L265.279 55.4898L267.557 63.9145L264.896 64.7159ZM263.686 54.9079C263.312 55.0204 262.958 54.9928 262.622 54.825C262.285 54.6535 262.069 54.3904 261.973 54.0358C261.878 53.6847 261.931 53.3445 262.133 53.015C262.333 52.6818 262.62 52.459 262.993 52.3465C263.37 52.2328 263.725 52.2623 264.058 52.4348C264.394 52.6026 264.609 52.862 264.704 53.2131C264.8 53.5678 264.748 53.9117 264.548 54.2448C264.35 54.5732 264.063 54.7942 263.686 54.9079Z" fill="#D9D9D9"/>
<path d="M278.688 51.8145L277.876 61.0794L274.806 61.9169L269.846 54.2269L272.669 53.4567L275.651 58.8722L275.738 58.8482L275.865 52.5847L278.688 51.8145Z" fill="#D9D9D9"/>
<path d="M284.875 59.4654L283.12 50.9165L285.828 50.297L287.583 58.846L284.875 59.4654ZM284.272 49.6098C283.892 49.6968 283.539 49.6454 283.214 49.4556C282.888 49.2621 282.688 48.9853 282.614 48.6254C282.541 48.2692 282.615 47.9337 282.837 47.6189C283.058 47.3004 283.358 47.0976 283.738 47.0107C284.122 46.9228 284.475 46.9761 284.798 47.1705C285.123 47.3603 285.322 47.6333 285.395 47.9895C285.469 48.3494 285.395 48.6886 285.175 49.0072C284.957 49.3211 284.656 49.522 284.272 49.6098Z" fill="#D9D9D9"/>
<path d="M296.723 57.1583C295.828 57.3384 295.024 57.3167 294.31 57.0934C293.599 56.8655 293.01 56.4568 292.541 55.8673C292.076 55.2732 291.761 54.5196 291.596 53.6063C291.436 52.7192 291.471 51.9087 291.7 51.175C291.928 50.4375 292.327 49.8204 292.895 49.3236C293.463 48.8231 294.177 48.4862 295.039 48.3128C295.648 48.1903 296.222 48.1733 296.761 48.2618C297.301 48.3503 297.788 48.5439 298.223 48.8427C298.658 49.1415 299.027 49.5443 299.33 50.0512C299.633 50.5543 299.848 51.1582 299.975 51.8627L300.098 52.5448L292.662 54.0409L292.375 52.453L297.277 51.4668C297.221 51.1768 297.105 50.9315 296.93 50.7311C296.756 50.5306 296.54 50.3905 296.283 50.3108C296.029 50.2267 295.752 50.2149 295.451 50.2754C295.147 50.3366 294.886 50.4605 294.67 50.647C294.453 50.8298 294.295 51.0527 294.196 51.316C294.097 51.5755 294.07 51.8532 294.115 52.1492L294.407 53.7651C294.471 54.1155 294.595 54.4092 294.78 54.6462C294.965 54.8795 295.196 55.0434 295.475 55.138C295.754 55.2326 296.068 55.2447 296.417 55.1745C296.658 55.1259 296.871 55.0483 297.056 54.9416C297.241 54.8349 297.392 54.7021 297.509 54.5433C297.627 54.3844 297.704 54.2029 297.74 53.9986L300.254 53.5681C300.252 54.1518 300.112 54.688 299.834 55.1764C299.56 55.6604 299.16 56.0751 298.633 56.4205C298.106 56.7622 297.469 57.0082 296.723 57.1583Z" fill="#D9D9D9"/>
<path d="M307.552 50.177L308.247 55.1056L305.502 55.5364L304.284 46.8944L306.894 46.4848L307.118 48.0714L307.213 48.0564C307.33 47.4976 307.597 47.0321 308.015 46.6598C308.432 46.2837 308.959 46.0458 309.595 45.9459C310.202 45.8508 310.747 45.9052 311.231 46.1091C311.718 46.3087 312.119 46.6329 312.435 47.0818C312.754 47.5263 312.957 48.0733 313.045 48.7228L313.821 54.2309L311.076 54.6616L310.376 49.6936C310.312 49.2129 310.137 48.8569 309.852 48.6256C309.571 48.3938 309.213 48.3119 308.779 48.38C308.491 48.4252 308.246 48.5289 308.043 48.6911C307.843 48.8489 307.7 49.0535 307.613 49.3049C307.53 49.5556 307.51 49.8463 307.552 50.177Z" fill="#D9D9D9"/>
<path d="M321.607 53.5886C320.967 53.6609 320.369 53.5608 319.812 53.2884C319.255 53.0159 318.787 52.5657 318.407 51.9378C318.028 51.3098 317.788 50.5041 317.688 49.5205C317.584 48.4992 317.661 47.6406 317.918 46.9445C318.174 46.2484 318.548 45.7125 319.039 45.3368C319.534 44.9606 320.084 44.7383 320.69 44.6698C321.146 44.6183 321.544 44.6533 321.883 44.775C322.223 44.8929 322.51 45.0624 322.746 45.2836C322.981 45.5047 323.167 45.741 323.303 45.9924L323.36 45.986L322.915 41.6051L325.676 41.2929L326.851 52.8698L324.118 53.1788L323.975 51.7713L323.891 51.7809C323.801 52.0616 323.661 52.3309 323.47 52.5889C323.279 52.8468 323.029 53.0656 322.72 53.2454C322.415 53.4248 322.044 53.5392 321.607 53.5886ZM322.348 51.3263C322.683 51.2884 322.96 51.1619 323.178 50.9466C323.395 50.7276 323.551 50.4375 323.643 50.0764C323.736 49.7152 323.759 49.301 323.711 48.8337C323.663 48.3588 323.558 47.9572 323.395 47.6287C323.236 47.2998 323.027 47.0567 322.767 46.8993C322.511 46.7414 322.216 46.6814 321.881 46.7193C321.538 46.758 321.258 46.885 321.04 47.1003C320.822 47.3155 320.668 47.6016 320.579 47.9586C320.493 48.3151 320.474 48.7271 320.522 49.1944C320.569 49.6617 320.672 50.0616 320.832 50.3943C320.991 50.727 321.197 50.9762 321.45 51.142C321.707 51.3036 322.006 51.365 322.348 51.3263Z" fill="#D9D9D9"/>
<path d="M334.386 52.6167C333.831 52.6544 333.332 52.5952 332.89 52.4392C332.451 52.2792 332.096 52.0186 331.823 51.6574C331.555 51.2922 331.403 50.8223 331.368 50.2476C331.338 49.7636 331.398 49.3495 331.548 49.0053C331.698 48.661 331.916 48.3748 332.201 48.1465C332.487 47.9183 332.822 47.7381 333.205 47.6058C333.587 47.4697 333.998 47.3678 334.438 47.2999C334.93 47.221 335.326 47.1466 335.626 47.077C335.925 47.0035 336.139 46.9149 336.27 46.8111C336.404 46.7033 336.465 46.5606 336.454 46.3829L336.453 46.3545C336.435 46.0634 336.321 45.8452 336.111 45.7C335.901 45.5548 335.626 45.4938 335.286 45.5169C334.919 45.5418 334.629 45.6412 334.416 45.8151C334.203 45.989 334.074 46.218 334.031 46.5018L331.469 46.5847C331.512 46.0502 331.678 45.5644 331.966 45.1272C332.258 44.686 332.673 44.3275 333.21 44.0519C333.751 43.7722 334.41 43.6059 335.189 43.5531C335.744 43.5154 336.261 43.5468 336.737 43.6473C337.214 43.744 337.633 43.9054 337.996 44.1313C338.359 44.3534 338.646 44.6377 338.856 44.984C339.071 45.3301 339.192 45.7338 339.221 46.1951L339.581 52.1159L336.974 52.293L336.9 51.0793L336.832 51.0839C336.695 51.3893 336.512 51.6523 336.282 51.8729C336.057 52.0933 335.784 52.2655 335.466 52.3896C335.151 52.5135 334.791 52.5892 334.386 52.6167ZM335.132 50.7437C335.43 50.7235 335.695 50.6448 335.926 50.5076C336.16 50.3702 336.343 50.1908 336.474 49.9693C336.604 49.744 336.661 49.4896 336.643 49.206L336.593 48.378C336.516 48.425 336.422 48.4694 336.311 48.5111C336.203 48.5526 336.084 48.5929 335.954 48.6321C335.823 48.6714 335.689 48.7071 335.55 48.7392C335.412 48.7714 335.279 48.8013 335.152 48.8289C334.894 48.8882 334.675 48.9676 334.495 49.0672C334.319 49.1665 334.186 49.2894 334.096 49.4359C334.01 49.5785 333.972 49.7442 333.984 49.9333C334.001 50.2206 334.117 50.433 334.33 50.5704C334.547 50.7075 334.814 50.7653 335.132 50.7437Z" fill="#D9D9D9"/>
<path d="M354.936 55.2801C354.603 55.2791 354.289 55.2517 353.993 55.1978C353.698 55.1477 353.444 55.0807 353.232 54.9968L353.851 52.9815C354.124 53.0732 354.37 53.1269 354.59 53.1427C354.813 53.1585 355.004 53.1231 355.164 53.0364C355.327 52.9535 355.452 52.8043 355.54 52.5886L355.648 52.3275L352.569 43.2732L355.479 43.2816L357.07 49.5134L357.161 49.5137L358.808 43.2911L361.734 43.2995L358.42 52.8525C358.26 53.3294 358.033 53.7492 357.74 54.112C357.452 54.4786 357.078 54.7654 356.619 54.9724C356.164 55.1794 355.603 55.282 354.936 55.2801Z" fill="#D9D9D9"/>
<path d="M376.978 53.06L373.964 52.8389L378.644 41.5148L382.378 41.7887L385.529 53.6871L382.515 53.466L380.361 44.5804L380.27 44.5737L376.978 53.06ZM376.877 48.4608L383.178 48.923L383.038 51.0547L376.737 50.5926L376.877 48.4608Z" fill="#D9D9D9"/>
<path d="M390.081 57.7711C389.75 57.731 389.441 57.6668 389.154 57.5785C388.866 57.4939 388.621 57.3975 388.419 57.2891L389.247 55.3578C389.508 55.481 389.746 55.5634 389.963 55.6049C390.183 55.6468 390.377 55.6341 390.544 55.5666C390.715 55.5034 390.855 55.3697 390.965 55.1655L391.101 54.9187L389 45.5529L391.888 45.9031L392.81 52.2874L392.9 52.2983L395.193 46.304L398.098 46.6562L393.797 55.7665C393.588 56.2218 393.318 56.6127 392.989 56.9391C392.664 57.2697 392.262 57.511 391.785 57.6629C391.311 57.8153 390.743 57.8513 390.081 57.7711Z" fill="#D9D9D9"/>
<path d="M407.358 53.3238L408.08 48.4164L410.816 48.8648L409.546 57.4991L406.934 57.071L407.17 55.4633L407.08 55.4486C406.812 55.9458 406.425 56.3122 405.92 56.5479C405.418 56.7805 404.844 56.8438 404.198 56.7378C403.611 56.6417 403.115 56.4222 402.71 56.0795C402.304 55.7368 402.014 55.3035 401.839 54.7797C401.663 54.2521 401.622 53.6619 401.714 53.0092L402.524 47.506L405.266 47.9552L404.535 52.9188C404.47 53.3879 404.539 53.7773 404.743 54.0869C404.946 54.3965 405.257 54.5856 405.676 54.6542C405.948 54.699 406.202 54.6791 406.437 54.5947C406.675 54.5072 406.875 54.3576 407.037 54.1461C407.202 53.9315 407.309 53.6574 407.358 53.3238Z" fill="#D9D9D9"/>
<path d="M417.111 59.334C416.48 59.2028 415.938 58.9197 415.484 58.4848C415.029 58.0498 414.71 57.4726 414.524 56.7533C414.339 56.0339 414.337 55.1883 414.519 54.2164C414.707 53.2074 415.022 52.4103 415.462 51.825C415.903 51.2398 416.41 50.8444 416.984 50.639C417.562 50.4343 418.149 50.394 418.746 50.5183C419.195 50.6117 419.564 50.7698 419.854 50.9925C420.144 51.2116 420.371 51.4637 420.533 51.749C420.696 52.0342 420.806 52.3184 420.865 52.6014L420.921 52.613L421.729 48.2844L424.45 48.8506L422.312 60.289L419.62 59.7287L419.88 58.338L419.797 58.3206C419.632 58.561 419.423 58.7747 419.168 58.9615C418.914 59.1484 418.614 59.2794 418.268 59.3545C417.927 59.4304 417.541 59.4235 417.111 59.334ZM418.454 57.4029C418.784 57.4716 419.083 57.4372 419.352 57.2996C419.621 57.1583 419.85 56.9295 420.04 56.6132C420.231 56.2969 420.369 55.9079 420.455 55.4462C420.543 54.977 420.555 54.5599 420.492 54.1949C420.433 53.8306 420.302 53.5325 420.099 53.3006C419.899 53.0696 419.634 52.9197 419.304 52.851C418.967 52.7807 418.664 52.8144 418.396 52.9519C418.127 53.0895 417.9 53.3149 417.714 53.6283C417.532 53.9424 417.398 54.3304 417.312 54.7921C417.226 55.2538 417.212 55.6686 417.27 56.0367C417.329 56.4047 417.455 56.7076 417.649 56.9453C417.848 57.1801 418.116 57.3326 418.454 57.4029Z" fill="#D9D9D9"/>
<path d="M429.578 62.428C429.039 62.2903 428.58 62.0776 428.203 61.7899C427.831 61.4995 427.566 61.1388 427.408 60.7077C427.255 60.2739 427.243 59.7764 427.371 59.2152C427.48 58.7426 427.653 58.3649 427.893 58.0821C428.133 57.7994 428.421 57.5934 428.757 57.4643C429.094 57.3352 429.463 57.2672 429.864 57.2603C430.267 57.2497 430.687 57.2807 431.125 57.3533C431.616 57.4317 432.014 57.4844 432.318 57.5113C432.624 57.5345 432.853 57.5168 433.007 57.4582C433.164 57.3969 433.263 57.2795 433.303 57.1059L433.309 57.0782C433.374 56.7939 433.327 56.5494 433.168 56.3447C433.009 56.14 432.765 55.9955 432.434 55.9112C432.078 55.8204 431.774 55.8249 431.522 55.9247C431.27 56.0245 431.083 56.2035 430.962 56.4618L428.499 55.7396C428.691 55.2414 428.986 54.8281 429.384 54.4997C429.786 54.1685 430.282 53.955 430.871 53.8591C431.464 53.7605 432.139 53.8076 432.895 54.0005C433.435 54.1382 433.917 54.3297 434.343 54.5751C434.769 54.8167 435.123 55.1025 435.405 55.4323C435.688 55.7585 435.881 56.1204 435.984 56.518C436.091 56.9165 436.093 57.341 435.989 57.7914L434.665 63.5735L432.133 62.9273L432.404 61.7421L432.338 61.7253C432.122 61.9749 431.873 62.1694 431.592 62.3088C431.316 62.4492 431.008 62.529 430.669 62.5481C430.335 62.5682 429.971 62.5282 429.578 62.428ZM430.815 60.8678C431.105 60.9418 431.379 60.9492 431.638 60.89C431.9 60.8318 432.124 60.7171 432.311 60.5459C432.499 60.3711 432.624 60.1452 432.688 59.8683L432.873 59.0596C432.786 59.0806 432.684 59.0936 432.567 59.0988C432.453 59.1048 432.328 59.1063 432.193 59.103C432.058 59.0998 431.919 59.0919 431.779 59.0794C431.638 59.0669 431.503 59.054 431.374 59.0406C431.111 59.0166 430.88 59.0241 430.681 59.0631C430.485 59.1031 430.324 59.1792 430.197 59.2915C430.075 59.401 429.993 59.5481 429.951 59.7327C429.886 60.0133 429.937 60.2527 430.101 60.451C430.269 60.6502 430.507 60.7891 430.815 60.8678Z" fill="#D9D9D9"/>
<path d="M451.072 56.626L454.378 57.7213L455.129 65.5561L455.258 65.599L460.117 59.6225L463.423 60.7178L460.106 71.8714L457.506 71.0102L459.544 64.159L459.452 64.1286L454.782 70.0299L453.121 69.4795L452.495 61.7819L452.403 61.7515L450.354 68.6408L447.755 67.7796L451.072 56.626Z" fill="#D9D9D9"/>
<path d="M470.71 72.3633L472.371 67.6895L474.949 68.7102L472.026 76.9336L469.565 75.9589L470.109 74.4277L470.024 74.3942C469.666 74.8264 469.217 75.1048 468.679 75.2296C468.145 75.3521 467.574 75.2928 466.964 75.0516C466.411 74.8326 465.971 74.5117 465.643 74.0888C465.316 73.6659 465.117 73.1782 465.048 72.6258C464.981 72.0698 465.056 71.4805 465.273 70.8581L467.136 65.6168L469.719 66.6396L468.039 71.3669C467.884 71.8145 467.875 72.212 468.013 72.5596C468.15 72.9073 468.416 73.1591 468.811 73.3153C469.068 73.4171 469.319 73.4513 469.564 73.418C469.813 73.3825 470.037 73.2778 470.236 73.1039C470.439 72.9278 470.597 72.681 470.71 72.3633Z" fill="#D9D9D9"/>
<path d="M483.972 72.8615L483.213 74.7606L478.184 72.5193L478.944 70.6202L483.972 72.8615ZM480.774 69.1484L483.312 70.2795L480.312 77.7757C480.249 77.9339 480.222 78.0731 480.231 78.1931C480.245 78.3112 480.292 78.413 480.372 78.4983C480.453 78.5802 480.561 78.6512 480.696 78.7113C480.793 78.7545 480.899 78.7912 481.013 78.8214C481.132 78.8497 481.222 78.8691 481.283 78.8797L480.922 80.913C480.787 80.8942 480.598 80.8619 480.356 80.8159C480.117 80.7715 479.842 80.6885 479.532 80.5669C478.926 80.3298 478.443 80.032 478.085 79.6736C477.732 79.3131 477.516 78.9017 477.436 78.4392C477.359 77.9783 477.434 77.475 477.661 76.9295L480.774 69.1484Z" fill="#D9D9D9"/>
<path d="M491.758 82.1748L493.736 77.6262L496.232 78.8351L492.751 86.8382L490.368 85.6838L491.016 84.1936L490.934 84.154C490.547 84.5595 490.082 84.8049 489.537 84.89C488.997 84.9734 488.432 84.8722 487.843 84.5865C487.308 84.3272 486.891 83.9742 486.595 83.5276C486.298 83.0809 486.134 82.5791 486.104 82.022C486.076 81.4614 486.191 80.8781 486.45 80.272L488.669 75.1711L491.169 76.3825L489.168 80.9833C488.983 81.4191 488.947 81.8158 489.059 82.1732C489.172 82.5307 489.42 82.8019 489.801 82.9869C490.05 83.1074 490.298 83.16 490.544 83.1447C490.795 83.1275 491.025 83.0393 491.235 82.8801C491.449 82.719 491.623 82.4839 491.758 82.1748Z" fill="#D9D9D9"/>
<path d="M498.929 90.4857C498.439 90.2221 498.044 89.9045 497.744 89.5329C497.449 89.1596 497.274 88.7433 497.219 88.2838C497.168 87.8226 497.268 87.3328 497.518 86.8142C497.729 86.3776 497.982 86.0495 498.277 85.83C498.572 85.6104 498.896 85.4777 499.25 85.4318C499.604 85.3858 499.976 85.4074 500.366 85.4966C500.757 85.5824 501.157 85.7131 501.563 85.8888C502.02 86.0828 502.393 86.2294 502.681 86.3285C502.971 86.4242 503.197 86.4617 503.358 86.441C503.524 86.4186 503.646 86.3273 503.723 86.167L503.736 86.1414C503.862 85.8787 503.872 85.6282 503.764 85.3898C503.657 85.1515 503.453 84.9516 503.152 84.7902C502.829 84.6163 502.534 84.548 502.268 84.5855C502.002 84.623 501.781 84.7536 501.606 84.9774L499.389 83.6823C499.686 83.2405 500.063 82.9065 500.521 82.68C500.984 82.452 501.511 82.3614 502.102 82.4083C502.698 82.4536 503.339 82.661 504.027 83.0304C504.517 83.294 504.94 83.5968 505.297 83.9385C505.654 84.2769 505.932 84.6412 506.131 85.0313C506.331 85.418 506.436 85.8183 506.446 86.2321C506.46 86.6476 506.366 87.0635 506.166 87.4797L503.588 92.8221L501.286 91.5847L501.814 90.4896L501.754 90.4573C501.489 90.6499 501.205 90.7809 500.903 90.8504C500.604 90.9216 500.288 90.9262 499.957 90.864C499.629 90.8037 499.286 90.6776 498.929 90.4857ZM500.475 89.2544C500.739 89.3961 501.002 89.4688 501.265 89.4726C501.531 89.4782 501.774 89.4196 501.993 89.2967C502.213 89.1704 502.385 88.9793 502.509 88.7234L502.869 87.9763C502.781 87.9762 502.68 87.9646 502.565 87.9415C502.453 87.9202 502.332 87.8918 502.202 87.8563C502.072 87.8208 501.941 87.7801 501.807 87.7342C501.674 87.6884 501.547 87.6435 501.425 87.5995C501.177 87.5133 500.952 87.4655 500.75 87.4561C500.552 87.4485 500.38 87.4845 500.232 87.5641C500.089 87.6421 499.977 87.7663 499.894 87.9369C499.769 88.1962 499.764 88.4425 499.878 88.6758C499.996 88.9109 500.195 89.1037 500.475 89.2544Z" fill="#D9D9D9"/>
<path d="M518.075 101.964C517.53 101.621 517.116 101.164 516.835 100.593C516.553 100.022 516.444 99.3631 516.506 98.6152C516.568 97.8673 516.842 97.0631 517.329 96.2024C517.834 95.3088 518.387 94.6603 518.989 94.2569C519.591 93.8534 520.193 93.6535 520.795 93.6571C521.401 93.6627 521.961 93.828 522.477 94.153C522.865 94.3973 523.158 94.6754 523.355 94.9875C523.554 95.2963 523.683 95.6144 523.741 95.9418C523.8 96.2691 523.81 96.5775 523.773 96.8669L523.821 96.8971L525.988 93.0639L528.339 94.5445L522.612 104.674L520.285 103.209L520.981 101.977L520.909 101.932C520.678 102.103 520.413 102.234 520.114 102.323C519.816 102.412 519.494 102.433 519.147 102.385C518.804 102.338 518.446 102.198 518.075 101.964ZM519.957 100.594C520.242 100.774 520.533 100.845 520.828 100.807C521.125 100.766 521.414 100.628 521.694 100.394C521.974 100.159 522.23 99.8371 522.461 99.4282C522.696 99.0128 522.844 98.6207 522.905 98.252C522.969 97.8853 522.944 97.5566 522.83 97.2658C522.719 96.9771 522.521 96.7429 522.236 96.5632C521.944 96.3795 521.651 96.3065 521.356 96.3442C521.061 96.3819 520.776 96.5175 520.5 96.751C520.228 96.9864 519.976 97.3086 519.745 97.7175C519.514 98.1264 519.365 98.5158 519.3 98.8858C519.234 99.2557 519.253 99.5874 519.357 99.8807C519.465 100.173 519.666 100.411 519.957 100.594Z" fill="#D9D9D9"/>
<path d="M530.141 110.254C529.391 109.735 528.838 109.134 528.483 108.451C528.133 107.767 527.988 107.039 528.05 106.267C528.116 105.493 528.394 104.713 528.884 103.924C529.359 103.159 529.922 102.591 530.57 102.221C531.221 101.848 531.911 101.686 532.642 101.736C533.374 101.783 534.102 102.057 534.824 102.557C535.335 102.91 535.751 103.316 536.073 103.773C536.395 104.23 536.61 104.727 536.718 105.262C536.827 105.797 536.819 106.36 536.697 106.952C536.576 107.54 536.327 108.138 535.949 108.746L535.583 109.335L529.347 105.018L530.198 103.647L534.309 106.493C534.462 106.24 534.544 105.977 534.553 105.703C534.563 105.429 534.504 105.169 534.376 104.924C534.253 104.678 534.065 104.467 533.813 104.293C533.557 104.116 533.291 104.017 533.015 103.996C532.741 103.972 532.481 104.02 532.237 104.141C531.995 104.258 531.791 104.442 531.627 104.692L530.76 106.086C530.573 106.389 530.465 106.694 530.439 107.002C530.414 107.307 530.468 107.596 530.602 107.868C530.736 108.14 530.949 108.377 531.242 108.58C531.444 108.72 531.646 108.818 531.847 108.875C532.048 108.931 532.243 108.944 532.431 108.913C532.62 108.883 532.794 108.806 532.956 108.683L535.014 110.197C534.625 110.623 534.171 110.913 533.651 111.069C533.136 111.223 532.579 111.235 531.978 111.105C531.38 110.971 530.767 110.688 530.141 110.254Z" fill="#D9D9D9"/>
<path d="M546.288 107.634L539.756 117.265L537.54 115.59L544.071 105.96L546.288 107.634Z" fill="#D9D9D9"/>
<path d="M550.712 126.21L557.728 116.927L561.44 120.052C562.107 120.613 562.59 121.181 562.891 121.755C563.195 122.332 563.326 122.893 563.285 123.436C563.246 123.983 563.051 124.489 562.7 124.954C562.432 125.308 562.123 125.564 561.771 125.722C561.421 125.878 561.053 125.941 560.667 125.913C560.28 125.884 559.896 125.768 559.514 125.565L559.445 125.656C559.791 125.976 560.046 126.357 560.211 126.797C560.379 127.24 560.431 127.705 560.368 128.19C560.307 128.673 560.107 129.137 559.769 129.585C559.392 130.083 558.934 130.427 558.393 130.615C557.855 130.8 557.27 130.811 556.638 130.65C556.008 130.486 555.365 130.127 554.707 129.573L550.712 126.21ZM554.231 126.213L555.561 127.333C556.027 127.725 556.44 127.922 556.8 127.923C557.162 127.927 557.468 127.764 557.717 127.435C557.897 127.196 557.999 126.945 558.022 126.683C558.047 126.417 557.997 126.155 557.871 125.895C557.747 125.632 557.547 125.385 557.272 125.153L555.903 124.001L554.231 126.213ZM556.995 122.555L558.186 123.557C558.421 123.755 558.66 123.89 558.905 123.962C559.149 124.034 559.38 124.036 559.598 123.967C559.819 123.901 560.011 123.759 560.176 123.541C560.411 123.23 560.49 122.896 560.413 122.54C560.337 122.183 560.119 121.854 559.759 121.551L558.533 120.519L556.995 122.555Z" fill="#D9D9D9"/>
<path d="M567.929 136.615L571.088 132.791L573.129 134.669L567.57 141.397L565.622 139.604L566.657 138.351L566.59 138.289C566.107 138.57 565.595 138.674 565.052 138.601C564.514 138.527 564.004 138.269 563.522 137.825C563.084 137.422 562.786 136.963 562.628 136.448C562.47 135.932 562.455 135.401 562.582 134.855C562.712 134.306 562.986 133.777 563.403 133.266L566.946 128.978L568.99 130.859L565.794 134.727C565.495 135.095 565.35 135.467 565.357 135.844C565.365 136.221 565.524 136.553 565.837 136.84C566.04 137.028 566.261 137.149 566.5 137.204C566.744 137.259 566.988 137.24 567.233 137.146C567.482 137.052 567.714 136.875 567.929 136.615Z" fill="#D9D9D9"/>
<path d="M573.699 147.95C573.048 147.3 572.615 146.6 572.402 145.853C572.191 145.107 572.186 144.359 572.387 143.608C572.59 142.855 572.989 142.146 573.583 141.484C574.18 140.818 574.828 140.359 575.528 140.106C576.232 139.853 576.943 139.816 577.659 139.998C578.378 140.181 579.061 140.596 579.707 141.241C580.278 141.811 580.677 142.416 580.906 143.056C581.138 143.699 581.194 144.338 581.076 144.974C580.963 145.61 580.675 146.201 580.21 146.748L578.373 144.913C578.634 144.542 578.761 144.174 578.753 143.809C578.748 143.446 578.605 143.124 578.324 142.843C578.096 142.615 577.836 142.483 577.543 142.447C577.253 142.409 576.942 142.472 576.61 142.638C576.283 142.804 575.948 143.079 575.604 143.462C575.26 143.846 575.017 144.217 574.873 144.576C574.734 144.934 574.69 145.267 574.74 145.574C574.793 145.878 574.933 146.143 575.161 146.371C575.343 146.553 575.54 146.673 575.753 146.73C575.968 146.79 576.192 146.787 576.425 146.72C576.66 146.65 576.892 146.513 577.121 146.309L578.959 148.144C578.459 148.661 577.912 149.002 577.317 149.167C576.725 149.334 576.117 149.318 575.494 149.118C574.876 148.917 574.278 148.528 573.699 147.95Z" fill="#D9D9D9"/>
<path d="M582.527 157.455C581.907 156.785 581.498 156.078 581.298 155.333C581.104 154.588 581.12 153.844 581.345 153.102C581.575 152.359 582.014 151.655 582.66 150.989C583.288 150.342 583.958 149.908 584.669 149.685C585.383 149.46 586.09 149.451 586.791 149.657C587.495 149.861 588.145 150.285 588.742 150.931C589.164 151.387 589.482 151.873 589.697 152.39C589.913 152.907 590.016 153.439 590.006 153.986C589.997 154.533 589.869 155.083 589.623 155.635C589.379 156.185 589.008 156.717 588.509 157.231L588.027 157.728L582.876 152.159L584 151.001L587.395 154.672C587.598 154.457 587.734 154.217 587.803 153.951C587.871 153.685 587.869 153.418 587.797 153.151C587.729 152.883 587.592 152.637 587.383 152.412C587.173 152.184 586.935 152.029 586.67 151.949C586.408 151.866 586.145 151.858 585.881 151.923C585.619 151.986 585.382 152.122 585.168 152.331L584.025 153.509C583.777 153.765 583.607 154.041 583.515 154.336C583.425 154.63 583.416 154.924 583.488 155.219C583.56 155.514 583.717 155.792 583.959 156.054C584.126 156.234 584.302 156.374 584.485 156.472C584.669 156.571 584.856 156.625 585.046 156.636C585.236 156.647 585.423 156.609 585.606 156.523L587.287 158.449C586.817 158.782 586.312 158.968 585.772 159.008C585.237 159.049 584.691 158.94 584.134 158.683C583.58 158.424 583.044 158.014 582.527 157.455Z" fill="#D9D9D9"/>
<path d="M591.213 167.591C590.619 166.894 590.244 166.165 590.088 165.405C589.938 164.646 589.992 163.898 590.25 163.163C590.513 162.428 590.969 161.753 591.617 161.137C592.268 160.519 592.952 160.112 593.67 159.916C594.392 159.72 595.102 159.742 595.799 159.983C596.501 160.224 597.15 160.693 597.744 161.391C598.339 162.088 598.711 162.817 598.862 163.577C599.017 164.336 598.964 165.084 598.7 165.819C598.442 166.554 597.988 167.231 597.337 167.849C596.688 168.464 596.003 168.87 595.28 169.066C594.563 169.262 593.853 169.24 593.151 168.999C592.454 168.758 591.808 168.289 591.213 167.591ZM592.745 166.161C592.961 166.414 593.218 166.559 593.516 166.594C593.815 166.629 594.135 166.567 594.477 166.409C594.822 166.254 595.168 166.012 595.514 165.683C595.865 165.35 596.132 165.01 596.315 164.664C596.5 164.322 596.592 163.992 596.59 163.675C596.589 163.359 596.48 163.074 596.264 162.82C596.04 162.558 595.777 162.406 595.474 162.365C595.173 162.327 594.85 162.386 594.506 162.541C594.163 162.699 593.816 162.945 593.465 163.279C593.118 163.608 592.853 163.943 592.668 164.286C592.485 164.631 592.396 164.964 592.4 165.284C592.406 165.606 592.521 165.898 592.745 166.161Z" fill="#D9D9D9"/>
<path d="M350 14C535.568 14 686 164.432 686 350C686 535.568 535.568 686 350 686C164.432 686 14 535.568 14 350C14 164.432 164.432 14 350 14Z" stroke="#D9D9D9" stroke-width="10"/>
</g>
<defs>
<clipPath id="clip0_1_3">
<rect width="700" height="700" fill="white"/>
</clipPath>
</defs>
</svg>
